G04 #@! TF.FileFunction,Soldermask,Bot*
%FSLAX46Y46*%
G04 Gerber Fmt 4.6, Leading zero omitted, Abs format (unit mm)*
G04 Created by KiCad (PCBNEW 4.0.5-e0-6337~49~ubuntu15.04.1) date Sun Oct 22 22:27:52 2017*
%MOMM*%
%LPD*%
G01*
G04 APERTURE LIST*
%ADD10C,0.100000*%
%ADD11C,7.050000*%
%ADD12R,2.000000X2.000000*%
%ADD13O,2.000000X2.000000*%
%ADD14O,2.432000X2.940000*%
%ADD15O,2.398980X2.398980*%
%ADD16R,2.398980X2.398980*%
%ADD17C,2.900000*%
%ADD18R,2.900000X2.900000*%
G04 APERTURE END LIST*
D10*
D11*
X62230000Y-88900000D03*
X100330000Y-88900000D03*
X100330000Y-31750000D03*
D12*
X88900000Y-35052000D03*
D13*
X81280000Y-42672000D03*
X86360000Y-35052000D03*
X83820000Y-42672000D03*
X83820000Y-35052000D03*
X86360000Y-42672000D03*
X81280000Y-35052000D03*
X88900000Y-42672000D03*
D14*
X83820000Y-72136000D03*
X86360000Y-72136000D03*
X81280000Y-72136000D03*
X83820000Y-79756000D03*
X81280000Y-79756000D03*
X86360000Y-79756000D03*
D12*
X88900000Y-54356000D03*
D13*
X81280000Y-61976000D03*
X86360000Y-54356000D03*
X83820000Y-61976000D03*
X83820000Y-54356000D03*
X86360000Y-61976000D03*
X81280000Y-54356000D03*
X88900000Y-61976000D03*
D15*
X60960000Y-48260000D03*
D16*
X60960000Y-40640000D03*
D15*
X60960000Y-43180000D03*
X60960000Y-45720000D03*
X60960000Y-50800000D03*
X60960000Y-53340000D03*
X60960000Y-55880000D03*
X60960000Y-58420000D03*
X101600000Y-48260000D03*
D16*
X101600000Y-40640000D03*
D15*
X101600000Y-43180000D03*
X101600000Y-45720000D03*
X101600000Y-50800000D03*
X101600000Y-53340000D03*
X101600000Y-55880000D03*
X101600000Y-58420000D03*
D17*
X63500000Y-81200000D03*
D18*
X63500000Y-71200000D03*
D17*
X63500000Y-76200000D03*
X99060000Y-81200000D03*
D18*
X99060000Y-71200000D03*
D17*
X99060000Y-76200000D03*
D11*
X62230000Y-31750000D03*
M02*
