M48
;DRILL file {KiCad 4.0.5-e0-6337~49~ubuntu15.04.1} date Tue Oct 24 21:00:33 2017
;FORMAT={-:-/ absolute / metric / decimal}
FMAT,2
METRIC,TZ
T1C0.400
T2C0.800
T3C1.097
T4C1.143
T5C1.300
%
G90
G05
M71
T1
X71.612Y-40.64
X71.612Y-43.18
X71.612Y-45.72
X71.612Y-48.26
X71.612Y-50.8
X71.612Y-53.34
X71.612Y-55.88
X71.612Y-58.42
X72.414Y-76.2
X75.438Y-71.2
X76.343Y-38.698
X76.985Y-61.276
X78.994Y-66.548
X79.756Y-31.242
X79.756Y-47.244
X79.756Y-50.546
X79.756Y-58.42
X80.169Y-39.111
X80.459Y-59.883
X82.296Y-30.48
X82.296Y-52.832
X82.55Y-49.784
X87.884Y-72.872
X88.9Y-46.99
X88.9Y-67.056
X88.9Y-82.804
X90.17Y-56.642
X90.424Y-37.592
X92.202Y-49.53
X93.98Y-30.226
X93.98Y-35.814
X93.98Y-49.53
X93.98Y-55.118
X96.012Y-56.896
X96.52Y-42.418
X96.52Y-47.244
X96.52Y-61.722
X96.52Y-66.548
T2
X81.28Y-35.052
X81.28Y-42.672
X81.28Y-54.356
X81.28Y-61.976
X83.82Y-35.052
X83.82Y-42.672
X83.82Y-54.356
X83.82Y-61.976
X86.36Y-35.052
X86.36Y-42.672
X86.36Y-54.356
X86.36Y-61.976
X88.9Y-35.052
X88.9Y-42.672
X88.9Y-54.356
X88.9Y-61.976
T3
X60.96Y-40.64
X60.96Y-43.18
X60.96Y-45.72
X60.96Y-48.26
X60.96Y-50.8
X60.96Y-53.34
X60.96Y-55.88
X60.96Y-58.42
X101.6Y-40.64
X101.6Y-43.18
X101.6Y-45.72
X101.6Y-48.26
X101.6Y-50.8
X101.6Y-53.34
X101.6Y-55.88
X101.6Y-58.42
T4
X80.01Y-72.263
X80.01Y-79.756
X82.55Y-72.263
X82.55Y-79.756
X85.09Y-72.263
X85.09Y-79.756
T5
X63.5Y-71.2
X63.5Y-76.2
X63.5Y-81.2
X99.06Y-71.2
X99.06Y-76.2
X99.06Y-81.2
T0
M30
