G04 #@! TF.FileFunction,Copper,L2,Bot,Signal*
%FSLAX46Y46*%
G04 Gerber Fmt 4.6, Leading zero omitted, Abs format (unit mm)*
G04 Created by KiCad (PCBNEW 4.0.5-e0-6337~49~ubuntu15.04.1) date Sun Oct 22 22:27:52 2017*
%MOMM*%
%LPD*%
G01*
G04 APERTURE LIST*
%ADD10C,0.100000*%
%ADD11R,1.600000X1.600000*%
%ADD12O,1.600000X1.600000*%
%ADD13O,2.032000X2.540000*%
%ADD14O,1.998980X1.998980*%
%ADD15R,1.998980X1.998980*%
%ADD16C,2.500000*%
%ADD17R,2.500000X2.500000*%
%ADD18C,0.600000*%
%ADD19C,1.000000*%
%ADD20C,0.500000*%
%ADD21C,0.254000*%
G04 APERTURE END LIST*
D10*
D11*
X88900000Y-35052000D03*
D12*
X81280000Y-42672000D03*
X86360000Y-35052000D03*
X83820000Y-42672000D03*
X83820000Y-35052000D03*
X86360000Y-42672000D03*
X81280000Y-35052000D03*
X88900000Y-42672000D03*
D13*
X83820000Y-72136000D03*
X86360000Y-72136000D03*
X81280000Y-72136000D03*
X83820000Y-79756000D03*
X81280000Y-79756000D03*
X86360000Y-79756000D03*
D11*
X88900000Y-54356000D03*
D12*
X81280000Y-61976000D03*
X86360000Y-54356000D03*
X83820000Y-61976000D03*
X83820000Y-54356000D03*
X86360000Y-61976000D03*
X81280000Y-54356000D03*
X88900000Y-61976000D03*
D14*
X60960000Y-48260000D03*
D15*
X60960000Y-40640000D03*
D14*
X60960000Y-43180000D03*
X60960000Y-45720000D03*
X60960000Y-50800000D03*
X60960000Y-53340000D03*
X60960000Y-55880000D03*
X60960000Y-58420000D03*
X101600000Y-48260000D03*
D15*
X101600000Y-40640000D03*
D14*
X101600000Y-43180000D03*
X101600000Y-45720000D03*
X101600000Y-50800000D03*
X101600000Y-53340000D03*
X101600000Y-55880000D03*
X101600000Y-58420000D03*
D16*
X63500000Y-81200000D03*
D17*
X63500000Y-71200000D03*
D16*
X63500000Y-76200000D03*
X99060000Y-81200000D03*
D17*
X99060000Y-71200000D03*
D16*
X99060000Y-76200000D03*
D18*
X80168774Y-39110775D03*
X76342782Y-38698168D03*
X83820000Y-75946000D03*
X72414000Y-76200000D03*
X96012000Y-56896000D03*
X93980000Y-55118000D03*
X93980000Y-49530000D03*
X90170000Y-56642000D03*
X96520000Y-42418000D03*
X96520000Y-66548000D03*
X96520000Y-61722000D03*
X80010000Y-66294000D03*
X82550000Y-49784000D03*
X79756000Y-58420000D03*
X79756000Y-50546000D03*
X93980000Y-30226000D03*
X93980000Y-35814000D03*
X96520000Y-47244000D03*
X79756000Y-31242000D03*
X71612000Y-58420000D03*
X71612000Y-55880000D03*
X71612000Y-53340000D03*
X71612000Y-50800000D03*
X71612000Y-48260000D03*
X71612000Y-45720000D03*
X71612000Y-43180000D03*
X71612000Y-40640000D03*
X79756000Y-47244000D03*
X82296000Y-30480000D03*
X90424000Y-37592000D03*
X75438000Y-71200000D03*
X92202000Y-49530000D03*
X88900000Y-46990000D03*
X88900000Y-67056000D03*
X75438000Y-81280000D03*
X77048701Y-63232579D03*
X82296000Y-52832000D03*
X80459474Y-59882911D03*
D19*
X75438000Y-71200000D02*
X80344000Y-71200000D01*
X80344000Y-71200000D02*
X81280000Y-72136000D01*
X81280000Y-72136000D02*
X81280000Y-71882000D01*
X92202000Y-49530000D02*
X92205328Y-49533328D01*
X92205328Y-49533328D02*
X92205328Y-58670672D01*
X92205328Y-58670672D02*
X89699999Y-61176001D01*
X89699999Y-61176001D02*
X88900000Y-61976000D01*
X88900000Y-42672000D02*
X88900000Y-46990000D01*
X88900000Y-61976000D02*
X88900000Y-67056000D01*
X79232010Y-77485990D02*
X75438000Y-81280000D01*
X83820000Y-79756000D02*
X83820000Y-77486000D01*
X83820000Y-77486000D02*
X83819990Y-77485990D01*
X83819990Y-77485990D02*
X79232010Y-77485990D01*
X83820000Y-79756000D02*
X83820000Y-78994000D01*
X77048701Y-62808315D02*
X77048701Y-63232579D01*
X77048701Y-58587299D02*
X77048701Y-62808315D01*
X81280000Y-54356000D02*
X77048701Y-58587299D01*
X78232000Y-36968630D02*
X78232000Y-51308000D01*
X78232000Y-51308000D02*
X81280000Y-54356000D01*
X81280000Y-35052000D02*
X80148630Y-35052000D01*
X80148630Y-35052000D02*
X78232000Y-36968630D01*
D20*
X82296000Y-52832000D02*
X84836000Y-52832000D01*
X84836000Y-52832000D02*
X86360000Y-54356000D01*
X80883738Y-59882911D02*
X80459474Y-59882911D01*
X83820000Y-61976000D02*
X81726911Y-59882911D01*
X81726911Y-59882911D02*
X80883738Y-59882911D01*
D21*
G36*
X97990771Y-28242474D02*
X96826562Y-29404653D01*
X96195720Y-30923889D01*
X96194284Y-32568894D01*
X96822474Y-34089229D01*
X97984653Y-35253438D01*
X99503889Y-35884280D01*
X101148894Y-35885716D01*
X102669229Y-35257526D01*
X103833438Y-34095347D01*
X104013000Y-33662914D01*
X104013000Y-86985450D01*
X103837526Y-86560771D01*
X102675347Y-85396562D01*
X101156111Y-84765720D01*
X99511106Y-84764284D01*
X97990771Y-85392474D01*
X96826562Y-86554653D01*
X96195720Y-88073889D01*
X96194284Y-89718894D01*
X96822474Y-91239229D01*
X97984653Y-92403438D01*
X98417086Y-92583000D01*
X64144550Y-92583000D01*
X64569229Y-92407526D01*
X65733438Y-91245347D01*
X66364280Y-89726111D01*
X66365716Y-88081106D01*
X65737526Y-86560771D01*
X64575347Y-85396562D01*
X63056111Y-84765720D01*
X61411106Y-84764284D01*
X59890771Y-85392474D01*
X58726562Y-86554653D01*
X58547000Y-86987086D01*
X58547000Y-81573305D01*
X61614674Y-81573305D01*
X61901043Y-82266372D01*
X62430839Y-82797093D01*
X63123405Y-83084672D01*
X63873305Y-83085326D01*
X64566372Y-82798957D01*
X65097093Y-82269161D01*
X65384672Y-81576595D01*
X65384930Y-81280000D01*
X74303000Y-81280000D01*
X74389397Y-81714345D01*
X74635434Y-82082566D01*
X75003655Y-82328603D01*
X75438000Y-82415000D01*
X75872345Y-82328603D01*
X76240566Y-82082566D01*
X79702142Y-78620990D01*
X79896248Y-78620990D01*
X79754675Y-78832869D01*
X79629000Y-79464679D01*
X79629000Y-80047321D01*
X79754675Y-80679131D01*
X80112567Y-81214754D01*
X80648190Y-81572646D01*
X81280000Y-81698321D01*
X81911810Y-81572646D01*
X82447433Y-81214754D01*
X82550000Y-81061252D01*
X82652567Y-81214754D01*
X83188190Y-81572646D01*
X83820000Y-81698321D01*
X84451810Y-81572646D01*
X84987433Y-81214754D01*
X85104054Y-81040219D01*
X85282370Y-81267236D01*
X85845523Y-81583926D01*
X85977056Y-81615975D01*
X86233000Y-81496836D01*
X86233000Y-79883000D01*
X86487000Y-79883000D01*
X86487000Y-81496836D01*
X86742944Y-81615975D01*
X86874477Y-81583926D01*
X86893363Y-81573305D01*
X97174674Y-81573305D01*
X97461043Y-82266372D01*
X97990839Y-82797093D01*
X98683405Y-83084672D01*
X99433305Y-83085326D01*
X100126372Y-82798957D01*
X100657093Y-82269161D01*
X100944672Y-81576595D01*
X100945326Y-80826695D01*
X100658957Y-80133628D01*
X100129161Y-79602907D01*
X99436595Y-79315328D01*
X98686695Y-79314674D01*
X97993628Y-79601043D01*
X97462907Y-80130839D01*
X97175328Y-80823405D01*
X97174674Y-81573305D01*
X86893363Y-81573305D01*
X87437630Y-81267236D01*
X87836724Y-80759143D01*
X88011000Y-80137000D01*
X88011000Y-79883000D01*
X86487000Y-79883000D01*
X86233000Y-79883000D01*
X86213000Y-79883000D01*
X86213000Y-79629000D01*
X86233000Y-79629000D01*
X86233000Y-78015164D01*
X86487000Y-78015164D01*
X86487000Y-79629000D01*
X88011000Y-79629000D01*
X88011000Y-79375000D01*
X87836724Y-78752857D01*
X87437630Y-78244764D01*
X86874477Y-77928074D01*
X86742944Y-77896025D01*
X86487000Y-78015164D01*
X86233000Y-78015164D01*
X85977056Y-77896025D01*
X85845523Y-77928074D01*
X85282370Y-78244764D01*
X85104054Y-78471781D01*
X84987433Y-78297246D01*
X84955000Y-78275575D01*
X84955000Y-77533320D01*
X97906285Y-77533320D01*
X98035533Y-77826123D01*
X98735806Y-78094388D01*
X99485435Y-78074250D01*
X100084467Y-77826123D01*
X100213715Y-77533320D01*
X99060000Y-76379605D01*
X97906285Y-77533320D01*
X84955000Y-77533320D01*
X84955000Y-77486000D01*
X84868603Y-77051654D01*
X84622566Y-76683434D01*
X84622556Y-76683424D01*
X84535769Y-76625435D01*
X84254336Y-76437387D01*
X83819990Y-76350990D01*
X79232010Y-76350990D01*
X78797664Y-76437387D01*
X78429444Y-76683424D01*
X74635434Y-80477434D01*
X74389397Y-80845655D01*
X74303000Y-81280000D01*
X65384930Y-81280000D01*
X65385326Y-80826695D01*
X65098957Y-80133628D01*
X64569161Y-79602907D01*
X63876595Y-79315328D01*
X63126695Y-79314674D01*
X62433628Y-79601043D01*
X61902907Y-80130839D01*
X61615328Y-80823405D01*
X61614674Y-81573305D01*
X58547000Y-81573305D01*
X58547000Y-77533320D01*
X62346285Y-77533320D01*
X62475533Y-77826123D01*
X63175806Y-78094388D01*
X63925435Y-78074250D01*
X64524467Y-77826123D01*
X64653715Y-77533320D01*
X63500000Y-76379605D01*
X62346285Y-77533320D01*
X58547000Y-77533320D01*
X58547000Y-75875806D01*
X61605612Y-75875806D01*
X61625750Y-76625435D01*
X61873877Y-77224467D01*
X62166680Y-77353715D01*
X63320395Y-76200000D01*
X63679605Y-76200000D01*
X64833320Y-77353715D01*
X65126123Y-77224467D01*
X65394388Y-76524194D01*
X65376970Y-75875806D01*
X97165612Y-75875806D01*
X97185750Y-76625435D01*
X97433877Y-77224467D01*
X97726680Y-77353715D01*
X98880395Y-76200000D01*
X99239605Y-76200000D01*
X100393320Y-77353715D01*
X100686123Y-77224467D01*
X100954388Y-76524194D01*
X100934250Y-75774565D01*
X100686123Y-75175533D01*
X100393320Y-75046285D01*
X99239605Y-76200000D01*
X98880395Y-76200000D01*
X97726680Y-75046285D01*
X97433877Y-75175533D01*
X97165612Y-75875806D01*
X65376970Y-75875806D01*
X65374250Y-75774565D01*
X65126123Y-75175533D01*
X64833320Y-75046285D01*
X63679605Y-76200000D01*
X63320395Y-76200000D01*
X62166680Y-75046285D01*
X61873877Y-75175533D01*
X61605612Y-75875806D01*
X58547000Y-75875806D01*
X58547000Y-74866680D01*
X62346285Y-74866680D01*
X63500000Y-76020395D01*
X64653715Y-74866680D01*
X97906285Y-74866680D01*
X99060000Y-76020395D01*
X100213715Y-74866680D01*
X100084467Y-74573877D01*
X99384194Y-74305612D01*
X98634565Y-74325750D01*
X98035533Y-74573877D01*
X97906285Y-74866680D01*
X64653715Y-74866680D01*
X64524467Y-74573877D01*
X63824194Y-74305612D01*
X63074565Y-74325750D01*
X62475533Y-74573877D01*
X62346285Y-74866680D01*
X58547000Y-74866680D01*
X58547000Y-69950000D01*
X61602560Y-69950000D01*
X61602560Y-72450000D01*
X61646838Y-72685317D01*
X61785910Y-72901441D01*
X61998110Y-73046431D01*
X62250000Y-73097440D01*
X64750000Y-73097440D01*
X64985317Y-73053162D01*
X65201441Y-72914090D01*
X65346431Y-72701890D01*
X65397440Y-72450000D01*
X65397440Y-71200000D01*
X74303000Y-71200000D01*
X74389397Y-71634346D01*
X74635434Y-72002566D01*
X75003654Y-72248603D01*
X75438000Y-72335000D01*
X79629000Y-72335000D01*
X79629000Y-72427321D01*
X79754675Y-73059131D01*
X80112567Y-73594754D01*
X80648190Y-73952646D01*
X81280000Y-74078321D01*
X81911810Y-73952646D01*
X82447433Y-73594754D01*
X82564054Y-73420219D01*
X82742370Y-73647236D01*
X83305523Y-73963926D01*
X83437056Y-73995975D01*
X83693000Y-73876836D01*
X83693000Y-72263000D01*
X83673000Y-72263000D01*
X83673000Y-72009000D01*
X83693000Y-72009000D01*
X83693000Y-70395164D01*
X83947000Y-70395164D01*
X83947000Y-72009000D01*
X83967000Y-72009000D01*
X83967000Y-72263000D01*
X83947000Y-72263000D01*
X83947000Y-73876836D01*
X84202944Y-73995975D01*
X84334477Y-73963926D01*
X84897630Y-73647236D01*
X85075946Y-73420219D01*
X85192567Y-73594754D01*
X85728190Y-73952646D01*
X86360000Y-74078321D01*
X86991810Y-73952646D01*
X87527433Y-73594754D01*
X87885325Y-73059131D01*
X88011000Y-72427321D01*
X88011000Y-71844679D01*
X87885325Y-71212869D01*
X87527433Y-70677246D01*
X86991810Y-70319354D01*
X86360000Y-70193679D01*
X85728190Y-70319354D01*
X85192567Y-70677246D01*
X85075946Y-70851781D01*
X84897630Y-70624764D01*
X84334477Y-70308074D01*
X84202944Y-70276025D01*
X83947000Y-70395164D01*
X83693000Y-70395164D01*
X83437056Y-70276025D01*
X83305523Y-70308074D01*
X82742370Y-70624764D01*
X82564054Y-70851781D01*
X82447433Y-70677246D01*
X81911810Y-70319354D01*
X81280000Y-70193679D01*
X80942189Y-70260874D01*
X80778346Y-70151397D01*
X80344000Y-70065000D01*
X75438000Y-70065000D01*
X75003654Y-70151397D01*
X74635434Y-70397434D01*
X74389397Y-70765654D01*
X74303000Y-71200000D01*
X65397440Y-71200000D01*
X65397440Y-69950000D01*
X97162560Y-69950000D01*
X97162560Y-72450000D01*
X97206838Y-72685317D01*
X97345910Y-72901441D01*
X97558110Y-73046431D01*
X97810000Y-73097440D01*
X100310000Y-73097440D01*
X100545317Y-73053162D01*
X100761441Y-72914090D01*
X100906431Y-72701890D01*
X100957440Y-72450000D01*
X100957440Y-69950000D01*
X100913162Y-69714683D01*
X100774090Y-69498559D01*
X100561890Y-69353569D01*
X100310000Y-69302560D01*
X97810000Y-69302560D01*
X97574683Y-69346838D01*
X97358559Y-69485910D01*
X97213569Y-69698110D01*
X97162560Y-69950000D01*
X65397440Y-69950000D01*
X65353162Y-69714683D01*
X65214090Y-69498559D01*
X65001890Y-69353569D01*
X64750000Y-69302560D01*
X62250000Y-69302560D01*
X62014683Y-69346838D01*
X61798559Y-69485910D01*
X61653569Y-69698110D01*
X61602560Y-69950000D01*
X58547000Y-69950000D01*
X58547000Y-39640510D01*
X59313070Y-39640510D01*
X59313070Y-41639490D01*
X59357348Y-41874807D01*
X59496420Y-42090931D01*
X59662473Y-42204390D01*
X59449928Y-42522486D01*
X59325510Y-43147978D01*
X59325510Y-43212022D01*
X59449928Y-43837514D01*
X59804241Y-44367781D01*
X59927290Y-44450000D01*
X59804241Y-44532219D01*
X59449928Y-45062486D01*
X59325510Y-45687978D01*
X59325510Y-45752022D01*
X59449928Y-46377514D01*
X59804241Y-46907781D01*
X59927290Y-46990000D01*
X59804241Y-47072219D01*
X59449928Y-47602486D01*
X59325510Y-48227978D01*
X59325510Y-48292022D01*
X59449928Y-48917514D01*
X59804241Y-49447781D01*
X59927290Y-49530000D01*
X59804241Y-49612219D01*
X59449928Y-50142486D01*
X59325510Y-50767978D01*
X59325510Y-50832022D01*
X59449928Y-51457514D01*
X59804241Y-51987781D01*
X59927290Y-52070000D01*
X59804241Y-52152219D01*
X59449928Y-52682486D01*
X59325510Y-53307978D01*
X59325510Y-53372022D01*
X59449928Y-53997514D01*
X59804241Y-54527781D01*
X59927290Y-54610000D01*
X59804241Y-54692219D01*
X59449928Y-55222486D01*
X59325510Y-55847978D01*
X59325510Y-55912022D01*
X59449928Y-56537514D01*
X59804241Y-57067781D01*
X59927290Y-57150000D01*
X59804241Y-57232219D01*
X59449928Y-57762486D01*
X59325510Y-58387978D01*
X59325510Y-58452022D01*
X59449928Y-59077514D01*
X59804241Y-59607781D01*
X60334508Y-59962094D01*
X60960000Y-60086512D01*
X61585492Y-59962094D01*
X62115759Y-59607781D01*
X62470072Y-59077514D01*
X62567581Y-58587299D01*
X75913701Y-58587299D01*
X75913701Y-63232579D01*
X76000098Y-63666925D01*
X76246135Y-64035145D01*
X76614355Y-64281182D01*
X77048701Y-64367579D01*
X77483047Y-64281182D01*
X77851267Y-64035145D01*
X78097304Y-63666925D01*
X78183701Y-63232579D01*
X78183701Y-60068078D01*
X79524312Y-60068078D01*
X79666357Y-60411854D01*
X79929147Y-60675103D01*
X80272675Y-60817749D01*
X80437855Y-60817893D01*
X80265302Y-60933189D01*
X79954233Y-61398736D01*
X79845000Y-61947887D01*
X79845000Y-62004113D01*
X79954233Y-62553264D01*
X80265302Y-63018811D01*
X80730849Y-63329880D01*
X81280000Y-63439113D01*
X81829151Y-63329880D01*
X82294698Y-63018811D01*
X82550000Y-62636725D01*
X82805302Y-63018811D01*
X83270849Y-63329880D01*
X83820000Y-63439113D01*
X84369151Y-63329880D01*
X84834698Y-63018811D01*
X85090000Y-62636725D01*
X85345302Y-63018811D01*
X85810849Y-63329880D01*
X86360000Y-63439113D01*
X86909151Y-63329880D01*
X87374698Y-63018811D01*
X87630000Y-62636725D01*
X87765000Y-62838767D01*
X87765000Y-67056000D01*
X87851397Y-67490346D01*
X88097434Y-67858566D01*
X88465654Y-68104603D01*
X88900000Y-68191000D01*
X89334346Y-68104603D01*
X89702566Y-67858566D01*
X89948603Y-67490346D01*
X90035000Y-67056000D01*
X90035000Y-62838767D01*
X90225767Y-62553264D01*
X90299736Y-62181397D01*
X90502565Y-61978568D01*
X90502567Y-61978565D01*
X93007894Y-59473238D01*
X93087588Y-59353968D01*
X93253931Y-59105018D01*
X93314532Y-58800355D01*
X100010373Y-58800355D01*
X100276932Y-59379726D01*
X100744916Y-59812987D01*
X101219646Y-60009619D01*
X101473000Y-59890265D01*
X101473000Y-58547000D01*
X101727000Y-58547000D01*
X101727000Y-59890265D01*
X101980354Y-60009619D01*
X102455084Y-59812987D01*
X102923068Y-59379726D01*
X103189627Y-58800355D01*
X103070807Y-58547000D01*
X101727000Y-58547000D01*
X101473000Y-58547000D01*
X100129193Y-58547000D01*
X100010373Y-58800355D01*
X93314532Y-58800355D01*
X93340328Y-58670672D01*
X93340328Y-55847978D01*
X99965510Y-55847978D01*
X99965510Y-55912022D01*
X100089928Y-56537514D01*
X100444241Y-57067781D01*
X100593300Y-57167379D01*
X100276932Y-57460274D01*
X100010373Y-58039645D01*
X100129193Y-58293000D01*
X101473000Y-58293000D01*
X101473000Y-58273000D01*
X101727000Y-58273000D01*
X101727000Y-58293000D01*
X103070807Y-58293000D01*
X103189627Y-58039645D01*
X102923068Y-57460274D01*
X102606700Y-57167379D01*
X102755759Y-57067781D01*
X103110072Y-56537514D01*
X103234490Y-55912022D01*
X103234490Y-55847978D01*
X103110072Y-55222486D01*
X102755759Y-54692219D01*
X102606700Y-54592621D01*
X102923068Y-54299726D01*
X103189627Y-53720355D01*
X103070807Y-53467000D01*
X101727000Y-53467000D01*
X101727000Y-53487000D01*
X101473000Y-53487000D01*
X101473000Y-53467000D01*
X100129193Y-53467000D01*
X100010373Y-53720355D01*
X100276932Y-54299726D01*
X100593300Y-54592621D01*
X100444241Y-54692219D01*
X100089928Y-55222486D01*
X99965510Y-55847978D01*
X93340328Y-55847978D01*
X93340328Y-50767978D01*
X99965510Y-50767978D01*
X99965510Y-50832022D01*
X100089928Y-51457514D01*
X100444241Y-51987781D01*
X100593300Y-52087379D01*
X100276932Y-52380274D01*
X100010373Y-52959645D01*
X100129193Y-53213000D01*
X101473000Y-53213000D01*
X101473000Y-53193000D01*
X101727000Y-53193000D01*
X101727000Y-53213000D01*
X103070807Y-53213000D01*
X103189627Y-52959645D01*
X102923068Y-52380274D01*
X102606700Y-52087379D01*
X102755759Y-51987781D01*
X103110072Y-51457514D01*
X103234490Y-50832022D01*
X103234490Y-50767978D01*
X103110072Y-50142486D01*
X102755759Y-49612219D01*
X102606700Y-49512621D01*
X102923068Y-49219726D01*
X103189627Y-48640355D01*
X103070807Y-48387000D01*
X101727000Y-48387000D01*
X101727000Y-48407000D01*
X101473000Y-48407000D01*
X101473000Y-48387000D01*
X100129193Y-48387000D01*
X100010373Y-48640355D01*
X100276932Y-49219726D01*
X100593300Y-49512621D01*
X100444241Y-49612219D01*
X100089928Y-50142486D01*
X99965510Y-50767978D01*
X93340328Y-50767978D01*
X93340328Y-49533328D01*
X93302834Y-49344833D01*
X93253932Y-49098983D01*
X93007895Y-48730762D01*
X93004566Y-48727434D01*
X92636345Y-48481397D01*
X92202000Y-48395000D01*
X91767655Y-48481397D01*
X91399434Y-48727434D01*
X91153397Y-49095655D01*
X91067000Y-49530000D01*
X91070328Y-49546731D01*
X91070328Y-58200540D01*
X88897435Y-60373433D01*
X88897432Y-60373435D01*
X88722716Y-60548151D01*
X88350849Y-60622120D01*
X87885302Y-60933189D01*
X87630000Y-61315275D01*
X87374698Y-60933189D01*
X86909151Y-60622120D01*
X86360000Y-60512887D01*
X85810849Y-60622120D01*
X85345302Y-60933189D01*
X85090000Y-61315275D01*
X84834698Y-60933189D01*
X84369151Y-60622120D01*
X83820000Y-60512887D01*
X83643562Y-60547983D01*
X82352701Y-59257121D01*
X82125061Y-59105018D01*
X82065586Y-59065278D01*
X82009395Y-59054101D01*
X81726911Y-58997910D01*
X81726906Y-58997911D01*
X80766296Y-58997911D01*
X80646273Y-58948073D01*
X80274307Y-58947749D01*
X79930531Y-59089794D01*
X79667282Y-59352584D01*
X79524636Y-59696112D01*
X79524312Y-60068078D01*
X78183701Y-60068078D01*
X78183701Y-59057431D01*
X81457284Y-55783849D01*
X81829151Y-55709880D01*
X82294698Y-55398811D01*
X82550000Y-55016725D01*
X82805302Y-55398811D01*
X83270849Y-55709880D01*
X83820000Y-55819113D01*
X84369151Y-55709880D01*
X84834698Y-55398811D01*
X85090000Y-55016725D01*
X85345302Y-55398811D01*
X85810849Y-55709880D01*
X86360000Y-55819113D01*
X86909151Y-55709880D01*
X87374698Y-55398811D01*
X87471101Y-55254535D01*
X87496838Y-55391317D01*
X87635910Y-55607441D01*
X87848110Y-55752431D01*
X88100000Y-55803440D01*
X89700000Y-55803440D01*
X89935317Y-55759162D01*
X90151441Y-55620090D01*
X90296431Y-55407890D01*
X90347440Y-55156000D01*
X90347440Y-53556000D01*
X90303162Y-53320683D01*
X90164090Y-53104559D01*
X89951890Y-52959569D01*
X89700000Y-52908560D01*
X88100000Y-52908560D01*
X87864683Y-52952838D01*
X87648559Y-53091910D01*
X87503569Y-53304110D01*
X87472185Y-53459089D01*
X87374698Y-53313189D01*
X86909151Y-53002120D01*
X86360000Y-52892887D01*
X86183562Y-52927983D01*
X85461790Y-52206210D01*
X85380986Y-52152219D01*
X85174675Y-52014367D01*
X85118484Y-52003190D01*
X84836000Y-51946999D01*
X84835995Y-51947000D01*
X82602822Y-51947000D01*
X82482799Y-51897162D01*
X82110833Y-51896838D01*
X81767057Y-52038883D01*
X81503808Y-52301673D01*
X81361162Y-52645201D01*
X81360999Y-52831867D01*
X79367000Y-50837868D01*
X79367000Y-42643887D01*
X79845000Y-42643887D01*
X79845000Y-42700113D01*
X79954233Y-43249264D01*
X80265302Y-43714811D01*
X80730849Y-44025880D01*
X81280000Y-44135113D01*
X81829151Y-44025880D01*
X82294698Y-43714811D01*
X82550000Y-43332725D01*
X82805302Y-43714811D01*
X83270849Y-44025880D01*
X83820000Y-44135113D01*
X84369151Y-44025880D01*
X84834698Y-43714811D01*
X85090000Y-43332725D01*
X85345302Y-43714811D01*
X85810849Y-44025880D01*
X86360000Y-44135113D01*
X86909151Y-44025880D01*
X87374698Y-43714811D01*
X87630000Y-43332725D01*
X87765000Y-43534767D01*
X87765000Y-46990000D01*
X87851397Y-47424346D01*
X88097434Y-47792566D01*
X88465654Y-48038603D01*
X88900000Y-48125000D01*
X89334346Y-48038603D01*
X89702566Y-47792566D01*
X89948603Y-47424346D01*
X90035000Y-46990000D01*
X90035000Y-45687978D01*
X99965510Y-45687978D01*
X99965510Y-45752022D01*
X100089928Y-46377514D01*
X100444241Y-46907781D01*
X100593300Y-47007379D01*
X100276932Y-47300274D01*
X100010373Y-47879645D01*
X100129193Y-48133000D01*
X101473000Y-48133000D01*
X101473000Y-48113000D01*
X101727000Y-48113000D01*
X101727000Y-48133000D01*
X103070807Y-48133000D01*
X103189627Y-47879645D01*
X102923068Y-47300274D01*
X102606700Y-47007379D01*
X102755759Y-46907781D01*
X103110072Y-46377514D01*
X103234490Y-45752022D01*
X103234490Y-45687978D01*
X103110072Y-45062486D01*
X102755759Y-44532219D01*
X102606700Y-44432621D01*
X102923068Y-44139726D01*
X103189627Y-43560355D01*
X103070807Y-43307000D01*
X101727000Y-43307000D01*
X101727000Y-43327000D01*
X101473000Y-43327000D01*
X101473000Y-43307000D01*
X100129193Y-43307000D01*
X100010373Y-43560355D01*
X100276932Y-44139726D01*
X100593300Y-44432621D01*
X100444241Y-44532219D01*
X100089928Y-45062486D01*
X99965510Y-45687978D01*
X90035000Y-45687978D01*
X90035000Y-43534767D01*
X90225767Y-43249264D01*
X90335000Y-42700113D01*
X90335000Y-42643887D01*
X90225767Y-42094736D01*
X89914698Y-41629189D01*
X89449151Y-41318120D01*
X88900000Y-41208887D01*
X88350849Y-41318120D01*
X87885302Y-41629189D01*
X87630000Y-42011275D01*
X87374698Y-41629189D01*
X86909151Y-41318120D01*
X86360000Y-41208887D01*
X85810849Y-41318120D01*
X85345302Y-41629189D01*
X85090000Y-42011275D01*
X84834698Y-41629189D01*
X84369151Y-41318120D01*
X83820000Y-41208887D01*
X83270849Y-41318120D01*
X82805302Y-41629189D01*
X82550000Y-42011275D01*
X82294698Y-41629189D01*
X81829151Y-41318120D01*
X81280000Y-41208887D01*
X80730849Y-41318120D01*
X80265302Y-41629189D01*
X79954233Y-42094736D01*
X79845000Y-42643887D01*
X79367000Y-42643887D01*
X79367000Y-39640510D01*
X99953070Y-39640510D01*
X99953070Y-41639490D01*
X99997348Y-41874807D01*
X100136420Y-42090931D01*
X100297649Y-42201094D01*
X100276932Y-42220274D01*
X100010373Y-42799645D01*
X100129193Y-43053000D01*
X101473000Y-43053000D01*
X101473000Y-43033000D01*
X101727000Y-43033000D01*
X101727000Y-43053000D01*
X103070807Y-43053000D01*
X103189627Y-42799645D01*
X102923068Y-42220274D01*
X102901137Y-42199970D01*
X103050931Y-42103580D01*
X103195921Y-41891380D01*
X103246930Y-41639490D01*
X103246930Y-39640510D01*
X103202652Y-39405193D01*
X103063580Y-39189069D01*
X102851380Y-39044079D01*
X102599490Y-38993070D01*
X100600510Y-38993070D01*
X100365193Y-39037348D01*
X100149069Y-39176420D01*
X100004079Y-39388620D01*
X99953070Y-39640510D01*
X79367000Y-39640510D01*
X79367000Y-37438762D01*
X80532449Y-36273313D01*
X80730849Y-36405880D01*
X81280000Y-36515113D01*
X81829151Y-36405880D01*
X82294698Y-36094811D01*
X82550000Y-35712725D01*
X82805302Y-36094811D01*
X83270849Y-36405880D01*
X83820000Y-36515113D01*
X84369151Y-36405880D01*
X84834698Y-36094811D01*
X85090000Y-35712725D01*
X85345302Y-36094811D01*
X85810849Y-36405880D01*
X86360000Y-36515113D01*
X86909151Y-36405880D01*
X87374698Y-36094811D01*
X87471101Y-35950535D01*
X87496838Y-36087317D01*
X87635910Y-36303441D01*
X87848110Y-36448431D01*
X88100000Y-36499440D01*
X89700000Y-36499440D01*
X89935317Y-36455162D01*
X90151441Y-36316090D01*
X90296431Y-36103890D01*
X90347440Y-35852000D01*
X90347440Y-34252000D01*
X90303162Y-34016683D01*
X90164090Y-33800559D01*
X89951890Y-33655569D01*
X89700000Y-33604560D01*
X88100000Y-33604560D01*
X87864683Y-33648838D01*
X87648559Y-33787910D01*
X87503569Y-34000110D01*
X87472185Y-34155089D01*
X87374698Y-34009189D01*
X86909151Y-33698120D01*
X86360000Y-33588887D01*
X85810849Y-33698120D01*
X85345302Y-34009189D01*
X85090000Y-34391275D01*
X84834698Y-34009189D01*
X84369151Y-33698120D01*
X83820000Y-33588887D01*
X83270849Y-33698120D01*
X82805302Y-34009189D01*
X82550000Y-34391275D01*
X82294698Y-34009189D01*
X81829151Y-33698120D01*
X81280000Y-33588887D01*
X80730849Y-33698120D01*
X80403272Y-33917000D01*
X80148630Y-33917000D01*
X79714284Y-34003397D01*
X79346064Y-34249434D01*
X77429434Y-36166064D01*
X77183397Y-36534284D01*
X77097000Y-36968630D01*
X77097000Y-51308000D01*
X77183397Y-51742346D01*
X77347392Y-51987781D01*
X77429434Y-52110566D01*
X79674868Y-54356000D01*
X76246135Y-57784733D01*
X76000098Y-58152953D01*
X75913701Y-58587299D01*
X62567581Y-58587299D01*
X62594490Y-58452022D01*
X62594490Y-58387978D01*
X62470072Y-57762486D01*
X62115759Y-57232219D01*
X61992710Y-57150000D01*
X62115759Y-57067781D01*
X62470072Y-56537514D01*
X62594490Y-55912022D01*
X62594490Y-55847978D01*
X62470072Y-55222486D01*
X62115759Y-54692219D01*
X61992710Y-54610000D01*
X62115759Y-54527781D01*
X62470072Y-53997514D01*
X62594490Y-53372022D01*
X62594490Y-53307978D01*
X62470072Y-52682486D01*
X62115759Y-52152219D01*
X61992710Y-52070000D01*
X62115759Y-51987781D01*
X62470072Y-51457514D01*
X62594490Y-50832022D01*
X62594490Y-50767978D01*
X62470072Y-50142486D01*
X62115759Y-49612219D01*
X61992710Y-49530000D01*
X62115759Y-49447781D01*
X62470072Y-48917514D01*
X62594490Y-48292022D01*
X62594490Y-48227978D01*
X62470072Y-47602486D01*
X62115759Y-47072219D01*
X61992710Y-46990000D01*
X62115759Y-46907781D01*
X62470072Y-46377514D01*
X62594490Y-45752022D01*
X62594490Y-45687978D01*
X62470072Y-45062486D01*
X62115759Y-44532219D01*
X61992710Y-44450000D01*
X62115759Y-44367781D01*
X62470072Y-43837514D01*
X62594490Y-43212022D01*
X62594490Y-43147978D01*
X62470072Y-42522486D01*
X62256547Y-42202923D01*
X62410931Y-42103580D01*
X62555921Y-41891380D01*
X62606930Y-41639490D01*
X62606930Y-39640510D01*
X62562652Y-39405193D01*
X62423580Y-39189069D01*
X62211380Y-39044079D01*
X61959490Y-38993070D01*
X59960510Y-38993070D01*
X59725193Y-39037348D01*
X59509069Y-39176420D01*
X59364079Y-39388620D01*
X59313070Y-39640510D01*
X58547000Y-39640510D01*
X58547000Y-33664550D01*
X58722474Y-34089229D01*
X59884653Y-35253438D01*
X61403889Y-35884280D01*
X63048894Y-35885716D01*
X64569229Y-35257526D01*
X65733438Y-34095347D01*
X66364280Y-32576111D01*
X66365716Y-30931106D01*
X65737526Y-29410771D01*
X64575347Y-28246562D01*
X64142914Y-28067000D01*
X98415450Y-28067000D01*
X97990771Y-28242474D01*
X97990771Y-28242474D01*
G37*
X97990771Y-28242474D02*
X96826562Y-29404653D01*
X96195720Y-30923889D01*
X96194284Y-32568894D01*
X96822474Y-34089229D01*
X97984653Y-35253438D01*
X99503889Y-35884280D01*
X101148894Y-35885716D01*
X102669229Y-35257526D01*
X103833438Y-34095347D01*
X104013000Y-33662914D01*
X104013000Y-86985450D01*
X103837526Y-86560771D01*
X102675347Y-85396562D01*
X101156111Y-84765720D01*
X99511106Y-84764284D01*
X97990771Y-85392474D01*
X96826562Y-86554653D01*
X96195720Y-88073889D01*
X96194284Y-89718894D01*
X96822474Y-91239229D01*
X97984653Y-92403438D01*
X98417086Y-92583000D01*
X64144550Y-92583000D01*
X64569229Y-92407526D01*
X65733438Y-91245347D01*
X66364280Y-89726111D01*
X66365716Y-88081106D01*
X65737526Y-86560771D01*
X64575347Y-85396562D01*
X63056111Y-84765720D01*
X61411106Y-84764284D01*
X59890771Y-85392474D01*
X58726562Y-86554653D01*
X58547000Y-86987086D01*
X58547000Y-81573305D01*
X61614674Y-81573305D01*
X61901043Y-82266372D01*
X62430839Y-82797093D01*
X63123405Y-83084672D01*
X63873305Y-83085326D01*
X64566372Y-82798957D01*
X65097093Y-82269161D01*
X65384672Y-81576595D01*
X65384930Y-81280000D01*
X74303000Y-81280000D01*
X74389397Y-81714345D01*
X74635434Y-82082566D01*
X75003655Y-82328603D01*
X75438000Y-82415000D01*
X75872345Y-82328603D01*
X76240566Y-82082566D01*
X79702142Y-78620990D01*
X79896248Y-78620990D01*
X79754675Y-78832869D01*
X79629000Y-79464679D01*
X79629000Y-80047321D01*
X79754675Y-80679131D01*
X80112567Y-81214754D01*
X80648190Y-81572646D01*
X81280000Y-81698321D01*
X81911810Y-81572646D01*
X82447433Y-81214754D01*
X82550000Y-81061252D01*
X82652567Y-81214754D01*
X83188190Y-81572646D01*
X83820000Y-81698321D01*
X84451810Y-81572646D01*
X84987433Y-81214754D01*
X85104054Y-81040219D01*
X85282370Y-81267236D01*
X85845523Y-81583926D01*
X85977056Y-81615975D01*
X86233000Y-81496836D01*
X86233000Y-79883000D01*
X86487000Y-79883000D01*
X86487000Y-81496836D01*
X86742944Y-81615975D01*
X86874477Y-81583926D01*
X86893363Y-81573305D01*
X97174674Y-81573305D01*
X97461043Y-82266372D01*
X97990839Y-82797093D01*
X98683405Y-83084672D01*
X99433305Y-83085326D01*
X100126372Y-82798957D01*
X100657093Y-82269161D01*
X100944672Y-81576595D01*
X100945326Y-80826695D01*
X100658957Y-80133628D01*
X100129161Y-79602907D01*
X99436595Y-79315328D01*
X98686695Y-79314674D01*
X97993628Y-79601043D01*
X97462907Y-80130839D01*
X97175328Y-80823405D01*
X97174674Y-81573305D01*
X86893363Y-81573305D01*
X87437630Y-81267236D01*
X87836724Y-80759143D01*
X88011000Y-80137000D01*
X88011000Y-79883000D01*
X86487000Y-79883000D01*
X86233000Y-79883000D01*
X86213000Y-79883000D01*
X86213000Y-79629000D01*
X86233000Y-79629000D01*
X86233000Y-78015164D01*
X86487000Y-78015164D01*
X86487000Y-79629000D01*
X88011000Y-79629000D01*
X88011000Y-79375000D01*
X87836724Y-78752857D01*
X87437630Y-78244764D01*
X86874477Y-77928074D01*
X86742944Y-77896025D01*
X86487000Y-78015164D01*
X86233000Y-78015164D01*
X85977056Y-77896025D01*
X85845523Y-77928074D01*
X85282370Y-78244764D01*
X85104054Y-78471781D01*
X84987433Y-78297246D01*
X84955000Y-78275575D01*
X84955000Y-77533320D01*
X97906285Y-77533320D01*
X98035533Y-77826123D01*
X98735806Y-78094388D01*
X99485435Y-78074250D01*
X100084467Y-77826123D01*
X100213715Y-77533320D01*
X99060000Y-76379605D01*
X97906285Y-77533320D01*
X84955000Y-77533320D01*
X84955000Y-77486000D01*
X84868603Y-77051654D01*
X84622566Y-76683434D01*
X84622556Y-76683424D01*
X84535769Y-76625435D01*
X84254336Y-76437387D01*
X83819990Y-76350990D01*
X79232010Y-76350990D01*
X78797664Y-76437387D01*
X78429444Y-76683424D01*
X74635434Y-80477434D01*
X74389397Y-80845655D01*
X74303000Y-81280000D01*
X65384930Y-81280000D01*
X65385326Y-80826695D01*
X65098957Y-80133628D01*
X64569161Y-79602907D01*
X63876595Y-79315328D01*
X63126695Y-79314674D01*
X62433628Y-79601043D01*
X61902907Y-80130839D01*
X61615328Y-80823405D01*
X61614674Y-81573305D01*
X58547000Y-81573305D01*
X58547000Y-77533320D01*
X62346285Y-77533320D01*
X62475533Y-77826123D01*
X63175806Y-78094388D01*
X63925435Y-78074250D01*
X64524467Y-77826123D01*
X64653715Y-77533320D01*
X63500000Y-76379605D01*
X62346285Y-77533320D01*
X58547000Y-77533320D01*
X58547000Y-75875806D01*
X61605612Y-75875806D01*
X61625750Y-76625435D01*
X61873877Y-77224467D01*
X62166680Y-77353715D01*
X63320395Y-76200000D01*
X63679605Y-76200000D01*
X64833320Y-77353715D01*
X65126123Y-77224467D01*
X65394388Y-76524194D01*
X65376970Y-75875806D01*
X97165612Y-75875806D01*
X97185750Y-76625435D01*
X97433877Y-77224467D01*
X97726680Y-77353715D01*
X98880395Y-76200000D01*
X99239605Y-76200000D01*
X100393320Y-77353715D01*
X100686123Y-77224467D01*
X100954388Y-76524194D01*
X100934250Y-75774565D01*
X100686123Y-75175533D01*
X100393320Y-75046285D01*
X99239605Y-76200000D01*
X98880395Y-76200000D01*
X97726680Y-75046285D01*
X97433877Y-75175533D01*
X97165612Y-75875806D01*
X65376970Y-75875806D01*
X65374250Y-75774565D01*
X65126123Y-75175533D01*
X64833320Y-75046285D01*
X63679605Y-76200000D01*
X63320395Y-76200000D01*
X62166680Y-75046285D01*
X61873877Y-75175533D01*
X61605612Y-75875806D01*
X58547000Y-75875806D01*
X58547000Y-74866680D01*
X62346285Y-74866680D01*
X63500000Y-76020395D01*
X64653715Y-74866680D01*
X97906285Y-74866680D01*
X99060000Y-76020395D01*
X100213715Y-74866680D01*
X100084467Y-74573877D01*
X99384194Y-74305612D01*
X98634565Y-74325750D01*
X98035533Y-74573877D01*
X97906285Y-74866680D01*
X64653715Y-74866680D01*
X64524467Y-74573877D01*
X63824194Y-74305612D01*
X63074565Y-74325750D01*
X62475533Y-74573877D01*
X62346285Y-74866680D01*
X58547000Y-74866680D01*
X58547000Y-69950000D01*
X61602560Y-69950000D01*
X61602560Y-72450000D01*
X61646838Y-72685317D01*
X61785910Y-72901441D01*
X61998110Y-73046431D01*
X62250000Y-73097440D01*
X64750000Y-73097440D01*
X64985317Y-73053162D01*
X65201441Y-72914090D01*
X65346431Y-72701890D01*
X65397440Y-72450000D01*
X65397440Y-71200000D01*
X74303000Y-71200000D01*
X74389397Y-71634346D01*
X74635434Y-72002566D01*
X75003654Y-72248603D01*
X75438000Y-72335000D01*
X79629000Y-72335000D01*
X79629000Y-72427321D01*
X79754675Y-73059131D01*
X80112567Y-73594754D01*
X80648190Y-73952646D01*
X81280000Y-74078321D01*
X81911810Y-73952646D01*
X82447433Y-73594754D01*
X82564054Y-73420219D01*
X82742370Y-73647236D01*
X83305523Y-73963926D01*
X83437056Y-73995975D01*
X83693000Y-73876836D01*
X83693000Y-72263000D01*
X83673000Y-72263000D01*
X83673000Y-72009000D01*
X83693000Y-72009000D01*
X83693000Y-70395164D01*
X83947000Y-70395164D01*
X83947000Y-72009000D01*
X83967000Y-72009000D01*
X83967000Y-72263000D01*
X83947000Y-72263000D01*
X83947000Y-73876836D01*
X84202944Y-73995975D01*
X84334477Y-73963926D01*
X84897630Y-73647236D01*
X85075946Y-73420219D01*
X85192567Y-73594754D01*
X85728190Y-73952646D01*
X86360000Y-74078321D01*
X86991810Y-73952646D01*
X87527433Y-73594754D01*
X87885325Y-73059131D01*
X88011000Y-72427321D01*
X88011000Y-71844679D01*
X87885325Y-71212869D01*
X87527433Y-70677246D01*
X86991810Y-70319354D01*
X86360000Y-70193679D01*
X85728190Y-70319354D01*
X85192567Y-70677246D01*
X85075946Y-70851781D01*
X84897630Y-70624764D01*
X84334477Y-70308074D01*
X84202944Y-70276025D01*
X83947000Y-70395164D01*
X83693000Y-70395164D01*
X83437056Y-70276025D01*
X83305523Y-70308074D01*
X82742370Y-70624764D01*
X82564054Y-70851781D01*
X82447433Y-70677246D01*
X81911810Y-70319354D01*
X81280000Y-70193679D01*
X80942189Y-70260874D01*
X80778346Y-70151397D01*
X80344000Y-70065000D01*
X75438000Y-70065000D01*
X75003654Y-70151397D01*
X74635434Y-70397434D01*
X74389397Y-70765654D01*
X74303000Y-71200000D01*
X65397440Y-71200000D01*
X65397440Y-69950000D01*
X97162560Y-69950000D01*
X97162560Y-72450000D01*
X97206838Y-72685317D01*
X97345910Y-72901441D01*
X97558110Y-73046431D01*
X97810000Y-73097440D01*
X100310000Y-73097440D01*
X100545317Y-73053162D01*
X100761441Y-72914090D01*
X100906431Y-72701890D01*
X100957440Y-72450000D01*
X100957440Y-69950000D01*
X100913162Y-69714683D01*
X100774090Y-69498559D01*
X100561890Y-69353569D01*
X100310000Y-69302560D01*
X97810000Y-69302560D01*
X97574683Y-69346838D01*
X97358559Y-69485910D01*
X97213569Y-69698110D01*
X97162560Y-69950000D01*
X65397440Y-69950000D01*
X65353162Y-69714683D01*
X65214090Y-69498559D01*
X65001890Y-69353569D01*
X64750000Y-69302560D01*
X62250000Y-69302560D01*
X62014683Y-69346838D01*
X61798559Y-69485910D01*
X61653569Y-69698110D01*
X61602560Y-69950000D01*
X58547000Y-69950000D01*
X58547000Y-39640510D01*
X59313070Y-39640510D01*
X59313070Y-41639490D01*
X59357348Y-41874807D01*
X59496420Y-42090931D01*
X59662473Y-42204390D01*
X59449928Y-42522486D01*
X59325510Y-43147978D01*
X59325510Y-43212022D01*
X59449928Y-43837514D01*
X59804241Y-44367781D01*
X59927290Y-44450000D01*
X59804241Y-44532219D01*
X59449928Y-45062486D01*
X59325510Y-45687978D01*
X59325510Y-45752022D01*
X59449928Y-46377514D01*
X59804241Y-46907781D01*
X59927290Y-46990000D01*
X59804241Y-47072219D01*
X59449928Y-47602486D01*
X59325510Y-48227978D01*
X59325510Y-48292022D01*
X59449928Y-48917514D01*
X59804241Y-49447781D01*
X59927290Y-49530000D01*
X59804241Y-49612219D01*
X59449928Y-50142486D01*
X59325510Y-50767978D01*
X59325510Y-50832022D01*
X59449928Y-51457514D01*
X59804241Y-51987781D01*
X59927290Y-52070000D01*
X59804241Y-52152219D01*
X59449928Y-52682486D01*
X59325510Y-53307978D01*
X59325510Y-53372022D01*
X59449928Y-53997514D01*
X59804241Y-54527781D01*
X59927290Y-54610000D01*
X59804241Y-54692219D01*
X59449928Y-55222486D01*
X59325510Y-55847978D01*
X59325510Y-55912022D01*
X59449928Y-56537514D01*
X59804241Y-57067781D01*
X59927290Y-57150000D01*
X59804241Y-57232219D01*
X59449928Y-57762486D01*
X59325510Y-58387978D01*
X59325510Y-58452022D01*
X59449928Y-59077514D01*
X59804241Y-59607781D01*
X60334508Y-59962094D01*
X60960000Y-60086512D01*
X61585492Y-59962094D01*
X62115759Y-59607781D01*
X62470072Y-59077514D01*
X62567581Y-58587299D01*
X75913701Y-58587299D01*
X75913701Y-63232579D01*
X76000098Y-63666925D01*
X76246135Y-64035145D01*
X76614355Y-64281182D01*
X77048701Y-64367579D01*
X77483047Y-64281182D01*
X77851267Y-64035145D01*
X78097304Y-63666925D01*
X78183701Y-63232579D01*
X78183701Y-60068078D01*
X79524312Y-60068078D01*
X79666357Y-60411854D01*
X79929147Y-60675103D01*
X80272675Y-60817749D01*
X80437855Y-60817893D01*
X80265302Y-60933189D01*
X79954233Y-61398736D01*
X79845000Y-61947887D01*
X79845000Y-62004113D01*
X79954233Y-62553264D01*
X80265302Y-63018811D01*
X80730849Y-63329880D01*
X81280000Y-63439113D01*
X81829151Y-63329880D01*
X82294698Y-63018811D01*
X82550000Y-62636725D01*
X82805302Y-63018811D01*
X83270849Y-63329880D01*
X83820000Y-63439113D01*
X84369151Y-63329880D01*
X84834698Y-63018811D01*
X85090000Y-62636725D01*
X85345302Y-63018811D01*
X85810849Y-63329880D01*
X86360000Y-63439113D01*
X86909151Y-63329880D01*
X87374698Y-63018811D01*
X87630000Y-62636725D01*
X87765000Y-62838767D01*
X87765000Y-67056000D01*
X87851397Y-67490346D01*
X88097434Y-67858566D01*
X88465654Y-68104603D01*
X88900000Y-68191000D01*
X89334346Y-68104603D01*
X89702566Y-67858566D01*
X89948603Y-67490346D01*
X90035000Y-67056000D01*
X90035000Y-62838767D01*
X90225767Y-62553264D01*
X90299736Y-62181397D01*
X90502565Y-61978568D01*
X90502567Y-61978565D01*
X93007894Y-59473238D01*
X93087588Y-59353968D01*
X93253931Y-59105018D01*
X93314532Y-58800355D01*
X100010373Y-58800355D01*
X100276932Y-59379726D01*
X100744916Y-59812987D01*
X101219646Y-60009619D01*
X101473000Y-59890265D01*
X101473000Y-58547000D01*
X101727000Y-58547000D01*
X101727000Y-59890265D01*
X101980354Y-60009619D01*
X102455084Y-59812987D01*
X102923068Y-59379726D01*
X103189627Y-58800355D01*
X103070807Y-58547000D01*
X101727000Y-58547000D01*
X101473000Y-58547000D01*
X100129193Y-58547000D01*
X100010373Y-58800355D01*
X93314532Y-58800355D01*
X93340328Y-58670672D01*
X93340328Y-55847978D01*
X99965510Y-55847978D01*
X99965510Y-55912022D01*
X100089928Y-56537514D01*
X100444241Y-57067781D01*
X100593300Y-57167379D01*
X100276932Y-57460274D01*
X100010373Y-58039645D01*
X100129193Y-58293000D01*
X101473000Y-58293000D01*
X101473000Y-58273000D01*
X101727000Y-58273000D01*
X101727000Y-58293000D01*
X103070807Y-58293000D01*
X103189627Y-58039645D01*
X102923068Y-57460274D01*
X102606700Y-57167379D01*
X102755759Y-57067781D01*
X103110072Y-56537514D01*
X103234490Y-55912022D01*
X103234490Y-55847978D01*
X103110072Y-55222486D01*
X102755759Y-54692219D01*
X102606700Y-54592621D01*
X102923068Y-54299726D01*
X103189627Y-53720355D01*
X103070807Y-53467000D01*
X101727000Y-53467000D01*
X101727000Y-53487000D01*
X101473000Y-53487000D01*
X101473000Y-53467000D01*
X100129193Y-53467000D01*
X100010373Y-53720355D01*
X100276932Y-54299726D01*
X100593300Y-54592621D01*
X100444241Y-54692219D01*
X100089928Y-55222486D01*
X99965510Y-55847978D01*
X93340328Y-55847978D01*
X93340328Y-50767978D01*
X99965510Y-50767978D01*
X99965510Y-50832022D01*
X100089928Y-51457514D01*
X100444241Y-51987781D01*
X100593300Y-52087379D01*
X100276932Y-52380274D01*
X100010373Y-52959645D01*
X100129193Y-53213000D01*
X101473000Y-53213000D01*
X101473000Y-53193000D01*
X101727000Y-53193000D01*
X101727000Y-53213000D01*
X103070807Y-53213000D01*
X103189627Y-52959645D01*
X102923068Y-52380274D01*
X102606700Y-52087379D01*
X102755759Y-51987781D01*
X103110072Y-51457514D01*
X103234490Y-50832022D01*
X103234490Y-50767978D01*
X103110072Y-50142486D01*
X102755759Y-49612219D01*
X102606700Y-49512621D01*
X102923068Y-49219726D01*
X103189627Y-48640355D01*
X103070807Y-48387000D01*
X101727000Y-48387000D01*
X101727000Y-48407000D01*
X101473000Y-48407000D01*
X101473000Y-48387000D01*
X100129193Y-48387000D01*
X100010373Y-48640355D01*
X100276932Y-49219726D01*
X100593300Y-49512621D01*
X100444241Y-49612219D01*
X100089928Y-50142486D01*
X99965510Y-50767978D01*
X93340328Y-50767978D01*
X93340328Y-49533328D01*
X93302834Y-49344833D01*
X93253932Y-49098983D01*
X93007895Y-48730762D01*
X93004566Y-48727434D01*
X92636345Y-48481397D01*
X92202000Y-48395000D01*
X91767655Y-48481397D01*
X91399434Y-48727434D01*
X91153397Y-49095655D01*
X91067000Y-49530000D01*
X91070328Y-49546731D01*
X91070328Y-58200540D01*
X88897435Y-60373433D01*
X88897432Y-60373435D01*
X88722716Y-60548151D01*
X88350849Y-60622120D01*
X87885302Y-60933189D01*
X87630000Y-61315275D01*
X87374698Y-60933189D01*
X86909151Y-60622120D01*
X86360000Y-60512887D01*
X85810849Y-60622120D01*
X85345302Y-60933189D01*
X85090000Y-61315275D01*
X84834698Y-60933189D01*
X84369151Y-60622120D01*
X83820000Y-60512887D01*
X83643562Y-60547983D01*
X82352701Y-59257121D01*
X82125061Y-59105018D01*
X82065586Y-59065278D01*
X82009395Y-59054101D01*
X81726911Y-58997910D01*
X81726906Y-58997911D01*
X80766296Y-58997911D01*
X80646273Y-58948073D01*
X80274307Y-58947749D01*
X79930531Y-59089794D01*
X79667282Y-59352584D01*
X79524636Y-59696112D01*
X79524312Y-60068078D01*
X78183701Y-60068078D01*
X78183701Y-59057431D01*
X81457284Y-55783849D01*
X81829151Y-55709880D01*
X82294698Y-55398811D01*
X82550000Y-55016725D01*
X82805302Y-55398811D01*
X83270849Y-55709880D01*
X83820000Y-55819113D01*
X84369151Y-55709880D01*
X84834698Y-55398811D01*
X85090000Y-55016725D01*
X85345302Y-55398811D01*
X85810849Y-55709880D01*
X86360000Y-55819113D01*
X86909151Y-55709880D01*
X87374698Y-55398811D01*
X87471101Y-55254535D01*
X87496838Y-55391317D01*
X87635910Y-55607441D01*
X87848110Y-55752431D01*
X88100000Y-55803440D01*
X89700000Y-55803440D01*
X89935317Y-55759162D01*
X90151441Y-55620090D01*
X90296431Y-55407890D01*
X90347440Y-55156000D01*
X90347440Y-53556000D01*
X90303162Y-53320683D01*
X90164090Y-53104559D01*
X89951890Y-52959569D01*
X89700000Y-52908560D01*
X88100000Y-52908560D01*
X87864683Y-52952838D01*
X87648559Y-53091910D01*
X87503569Y-53304110D01*
X87472185Y-53459089D01*
X87374698Y-53313189D01*
X86909151Y-53002120D01*
X86360000Y-52892887D01*
X86183562Y-52927983D01*
X85461790Y-52206210D01*
X85380986Y-52152219D01*
X85174675Y-52014367D01*
X85118484Y-52003190D01*
X84836000Y-51946999D01*
X84835995Y-51947000D01*
X82602822Y-51947000D01*
X82482799Y-51897162D01*
X82110833Y-51896838D01*
X81767057Y-52038883D01*
X81503808Y-52301673D01*
X81361162Y-52645201D01*
X81360999Y-52831867D01*
X79367000Y-50837868D01*
X79367000Y-42643887D01*
X79845000Y-42643887D01*
X79845000Y-42700113D01*
X79954233Y-43249264D01*
X80265302Y-43714811D01*
X80730849Y-44025880D01*
X81280000Y-44135113D01*
X81829151Y-44025880D01*
X82294698Y-43714811D01*
X82550000Y-43332725D01*
X82805302Y-43714811D01*
X83270849Y-44025880D01*
X83820000Y-44135113D01*
X84369151Y-44025880D01*
X84834698Y-43714811D01*
X85090000Y-43332725D01*
X85345302Y-43714811D01*
X85810849Y-44025880D01*
X86360000Y-44135113D01*
X86909151Y-44025880D01*
X87374698Y-43714811D01*
X87630000Y-43332725D01*
X87765000Y-43534767D01*
X87765000Y-46990000D01*
X87851397Y-47424346D01*
X88097434Y-47792566D01*
X88465654Y-48038603D01*
X88900000Y-48125000D01*
X89334346Y-48038603D01*
X89702566Y-47792566D01*
X89948603Y-47424346D01*
X90035000Y-46990000D01*
X90035000Y-45687978D01*
X99965510Y-45687978D01*
X99965510Y-45752022D01*
X100089928Y-46377514D01*
X100444241Y-46907781D01*
X100593300Y-47007379D01*
X100276932Y-47300274D01*
X100010373Y-47879645D01*
X100129193Y-48133000D01*
X101473000Y-48133000D01*
X101473000Y-48113000D01*
X101727000Y-48113000D01*
X101727000Y-48133000D01*
X103070807Y-48133000D01*
X103189627Y-47879645D01*
X102923068Y-47300274D01*
X102606700Y-47007379D01*
X102755759Y-46907781D01*
X103110072Y-46377514D01*
X103234490Y-45752022D01*
X103234490Y-45687978D01*
X103110072Y-45062486D01*
X102755759Y-44532219D01*
X102606700Y-44432621D01*
X102923068Y-44139726D01*
X103189627Y-43560355D01*
X103070807Y-43307000D01*
X101727000Y-43307000D01*
X101727000Y-43327000D01*
X101473000Y-43327000D01*
X101473000Y-43307000D01*
X100129193Y-43307000D01*
X100010373Y-43560355D01*
X100276932Y-44139726D01*
X100593300Y-44432621D01*
X100444241Y-44532219D01*
X100089928Y-45062486D01*
X99965510Y-45687978D01*
X90035000Y-45687978D01*
X90035000Y-43534767D01*
X90225767Y-43249264D01*
X90335000Y-42700113D01*
X90335000Y-42643887D01*
X90225767Y-42094736D01*
X89914698Y-41629189D01*
X89449151Y-41318120D01*
X88900000Y-41208887D01*
X88350849Y-41318120D01*
X87885302Y-41629189D01*
X87630000Y-42011275D01*
X87374698Y-41629189D01*
X86909151Y-41318120D01*
X86360000Y-41208887D01*
X85810849Y-41318120D01*
X85345302Y-41629189D01*
X85090000Y-42011275D01*
X84834698Y-41629189D01*
X84369151Y-41318120D01*
X83820000Y-41208887D01*
X83270849Y-41318120D01*
X82805302Y-41629189D01*
X82550000Y-42011275D01*
X82294698Y-41629189D01*
X81829151Y-41318120D01*
X81280000Y-41208887D01*
X80730849Y-41318120D01*
X80265302Y-41629189D01*
X79954233Y-42094736D01*
X79845000Y-42643887D01*
X79367000Y-42643887D01*
X79367000Y-39640510D01*
X99953070Y-39640510D01*
X99953070Y-41639490D01*
X99997348Y-41874807D01*
X100136420Y-42090931D01*
X100297649Y-42201094D01*
X100276932Y-42220274D01*
X100010373Y-42799645D01*
X100129193Y-43053000D01*
X101473000Y-43053000D01*
X101473000Y-43033000D01*
X101727000Y-43033000D01*
X101727000Y-43053000D01*
X103070807Y-43053000D01*
X103189627Y-42799645D01*
X102923068Y-42220274D01*
X102901137Y-42199970D01*
X103050931Y-42103580D01*
X103195921Y-41891380D01*
X103246930Y-41639490D01*
X103246930Y-39640510D01*
X103202652Y-39405193D01*
X103063580Y-39189069D01*
X102851380Y-39044079D01*
X102599490Y-38993070D01*
X100600510Y-38993070D01*
X100365193Y-39037348D01*
X100149069Y-39176420D01*
X100004079Y-39388620D01*
X99953070Y-39640510D01*
X79367000Y-39640510D01*
X79367000Y-37438762D01*
X80532449Y-36273313D01*
X80730849Y-36405880D01*
X81280000Y-36515113D01*
X81829151Y-36405880D01*
X82294698Y-36094811D01*
X82550000Y-35712725D01*
X82805302Y-36094811D01*
X83270849Y-36405880D01*
X83820000Y-36515113D01*
X84369151Y-36405880D01*
X84834698Y-36094811D01*
X85090000Y-35712725D01*
X85345302Y-36094811D01*
X85810849Y-36405880D01*
X86360000Y-36515113D01*
X86909151Y-36405880D01*
X87374698Y-36094811D01*
X87471101Y-35950535D01*
X87496838Y-36087317D01*
X87635910Y-36303441D01*
X87848110Y-36448431D01*
X88100000Y-36499440D01*
X89700000Y-36499440D01*
X89935317Y-36455162D01*
X90151441Y-36316090D01*
X90296431Y-36103890D01*
X90347440Y-35852000D01*
X90347440Y-34252000D01*
X90303162Y-34016683D01*
X90164090Y-33800559D01*
X89951890Y-33655569D01*
X89700000Y-33604560D01*
X88100000Y-33604560D01*
X87864683Y-33648838D01*
X87648559Y-33787910D01*
X87503569Y-34000110D01*
X87472185Y-34155089D01*
X87374698Y-34009189D01*
X86909151Y-33698120D01*
X86360000Y-33588887D01*
X85810849Y-33698120D01*
X85345302Y-34009189D01*
X85090000Y-34391275D01*
X84834698Y-34009189D01*
X84369151Y-33698120D01*
X83820000Y-33588887D01*
X83270849Y-33698120D01*
X82805302Y-34009189D01*
X82550000Y-34391275D01*
X82294698Y-34009189D01*
X81829151Y-33698120D01*
X81280000Y-33588887D01*
X80730849Y-33698120D01*
X80403272Y-33917000D01*
X80148630Y-33917000D01*
X79714284Y-34003397D01*
X79346064Y-34249434D01*
X77429434Y-36166064D01*
X77183397Y-36534284D01*
X77097000Y-36968630D01*
X77097000Y-51308000D01*
X77183397Y-51742346D01*
X77347392Y-51987781D01*
X77429434Y-52110566D01*
X79674868Y-54356000D01*
X76246135Y-57784733D01*
X76000098Y-58152953D01*
X75913701Y-58587299D01*
X62567581Y-58587299D01*
X62594490Y-58452022D01*
X62594490Y-58387978D01*
X62470072Y-57762486D01*
X62115759Y-57232219D01*
X61992710Y-57150000D01*
X62115759Y-57067781D01*
X62470072Y-56537514D01*
X62594490Y-55912022D01*
X62594490Y-55847978D01*
X62470072Y-55222486D01*
X62115759Y-54692219D01*
X61992710Y-54610000D01*
X62115759Y-54527781D01*
X62470072Y-53997514D01*
X62594490Y-53372022D01*
X62594490Y-53307978D01*
X62470072Y-52682486D01*
X62115759Y-52152219D01*
X61992710Y-52070000D01*
X62115759Y-51987781D01*
X62470072Y-51457514D01*
X62594490Y-50832022D01*
X62594490Y-50767978D01*
X62470072Y-50142486D01*
X62115759Y-49612219D01*
X61992710Y-49530000D01*
X62115759Y-49447781D01*
X62470072Y-48917514D01*
X62594490Y-48292022D01*
X62594490Y-48227978D01*
X62470072Y-47602486D01*
X62115759Y-47072219D01*
X61992710Y-46990000D01*
X62115759Y-46907781D01*
X62470072Y-46377514D01*
X62594490Y-45752022D01*
X62594490Y-45687978D01*
X62470072Y-45062486D01*
X62115759Y-44532219D01*
X61992710Y-44450000D01*
X62115759Y-44367781D01*
X62470072Y-43837514D01*
X62594490Y-43212022D01*
X62594490Y-43147978D01*
X62470072Y-42522486D01*
X62256547Y-42202923D01*
X62410931Y-42103580D01*
X62555921Y-41891380D01*
X62606930Y-41639490D01*
X62606930Y-39640510D01*
X62562652Y-39405193D01*
X62423580Y-39189069D01*
X62211380Y-39044079D01*
X61959490Y-38993070D01*
X59960510Y-38993070D01*
X59725193Y-39037348D01*
X59509069Y-39176420D01*
X59364079Y-39388620D01*
X59313070Y-39640510D01*
X58547000Y-39640510D01*
X58547000Y-33664550D01*
X58722474Y-34089229D01*
X59884653Y-35253438D01*
X61403889Y-35884280D01*
X63048894Y-35885716D01*
X64569229Y-35257526D01*
X65733438Y-34095347D01*
X66364280Y-32576111D01*
X66365716Y-30931106D01*
X65737526Y-29410771D01*
X64575347Y-28246562D01*
X64142914Y-28067000D01*
X98415450Y-28067000D01*
X97990771Y-28242474D01*
M02*
