G04 #@! TF.FileFunction,Legend,Bot*
%FSLAX46Y46*%
G04 Gerber Fmt 4.6, Leading zero omitted, Abs format (unit mm)*
G04 Created by KiCad (PCBNEW 4.0.5-e0-6337~49~ubuntu15.04.1) date Tue Oct 24 21:00:28 2017*
%MOMM*%
%LPD*%
G01*
G04 APERTURE LIST*
%ADD10C,0.100000*%
%ADD11C,0.300000*%
G04 APERTURE END LIST*
D10*
D11*
X92958572Y-90610571D02*
X92958572Y-91824857D01*
X93030001Y-91967714D01*
X93101429Y-92039143D01*
X93244286Y-92110571D01*
X93458572Y-92110571D01*
X93601429Y-92039143D01*
X92958572Y-91539143D02*
X93101429Y-91610571D01*
X93387143Y-91610571D01*
X93530001Y-91539143D01*
X93601429Y-91467714D01*
X93672858Y-91324857D01*
X93672858Y-90896286D01*
X93601429Y-90753429D01*
X93530001Y-90682000D01*
X93387143Y-90610571D01*
X93101429Y-90610571D01*
X92958572Y-90682000D01*
X92244286Y-91610571D02*
X92244286Y-90610571D01*
X92244286Y-90110571D02*
X92315715Y-90182000D01*
X92244286Y-90253429D01*
X92172858Y-90182000D01*
X92244286Y-90110571D01*
X92244286Y-90253429D01*
X91744286Y-90610571D02*
X91172857Y-90610571D01*
X91530000Y-90110571D02*
X91530000Y-91396286D01*
X91458572Y-91539143D01*
X91315714Y-91610571D01*
X91172857Y-91610571D01*
X90672857Y-91610571D02*
X90672857Y-90110571D01*
X90030000Y-91610571D02*
X90030000Y-90824857D01*
X90101429Y-90682000D01*
X90244286Y-90610571D01*
X90458571Y-90610571D01*
X90601429Y-90682000D01*
X90672857Y-90753429D01*
X88672857Y-90610571D02*
X88672857Y-91610571D01*
X89315714Y-90610571D02*
X89315714Y-91396286D01*
X89244286Y-91539143D01*
X89101428Y-91610571D01*
X88887143Y-91610571D01*
X88744286Y-91539143D01*
X88672857Y-91467714D01*
X87958571Y-91610571D02*
X87958571Y-90110571D01*
X87958571Y-90682000D02*
X87815714Y-90610571D01*
X87530000Y-90610571D01*
X87387143Y-90682000D01*
X87315714Y-90753429D01*
X87244285Y-90896286D01*
X87244285Y-91324857D01*
X87315714Y-91467714D01*
X87387143Y-91539143D01*
X87530000Y-91610571D01*
X87815714Y-91610571D01*
X87958571Y-91539143D01*
X86601428Y-91467714D02*
X86530000Y-91539143D01*
X86601428Y-91610571D01*
X86672857Y-91539143D01*
X86601428Y-91467714D01*
X86601428Y-91610571D01*
X85244285Y-91539143D02*
X85387142Y-91610571D01*
X85672856Y-91610571D01*
X85815714Y-91539143D01*
X85887142Y-91467714D01*
X85958571Y-91324857D01*
X85958571Y-90896286D01*
X85887142Y-90753429D01*
X85815714Y-90682000D01*
X85672856Y-90610571D01*
X85387142Y-90610571D01*
X85244285Y-90682000D01*
X84387142Y-91610571D02*
X84530000Y-91539143D01*
X84601428Y-91467714D01*
X84672857Y-91324857D01*
X84672857Y-90896286D01*
X84601428Y-90753429D01*
X84530000Y-90682000D01*
X84387142Y-90610571D01*
X84172857Y-90610571D01*
X84030000Y-90682000D01*
X83958571Y-90753429D01*
X83887142Y-90896286D01*
X83887142Y-91324857D01*
X83958571Y-91467714D01*
X84030000Y-91539143D01*
X84172857Y-91610571D01*
X84387142Y-91610571D01*
X83244285Y-91610571D02*
X83244285Y-90610571D01*
X83244285Y-90753429D02*
X83172857Y-90682000D01*
X83029999Y-90610571D01*
X82815714Y-90610571D01*
X82672857Y-90682000D01*
X82601428Y-90824857D01*
X82601428Y-91610571D01*
X82601428Y-90824857D02*
X82529999Y-90682000D01*
X82387142Y-90610571D01*
X82172857Y-90610571D01*
X82029999Y-90682000D01*
X81958571Y-90824857D01*
X81958571Y-91610571D01*
X80172857Y-90039143D02*
X81458571Y-91967714D01*
X79672856Y-90610571D02*
X79672856Y-92110571D01*
X79672856Y-90682000D02*
X79529999Y-90610571D01*
X79244285Y-90610571D01*
X79101428Y-90682000D01*
X79029999Y-90753429D01*
X78958570Y-90896286D01*
X78958570Y-91324857D01*
X79029999Y-91467714D01*
X79101428Y-91539143D01*
X79244285Y-91610571D01*
X79529999Y-91610571D01*
X79672856Y-91539143D01*
X78315713Y-91610571D02*
X78315713Y-90110571D01*
X77672856Y-91610571D02*
X77672856Y-90824857D01*
X77744285Y-90682000D01*
X77887142Y-90610571D01*
X78101427Y-90610571D01*
X78244285Y-90682000D01*
X78315713Y-90753429D01*
X76387142Y-91539143D02*
X76529999Y-91610571D01*
X76815713Y-91610571D01*
X76958570Y-91539143D01*
X77029999Y-91396286D01*
X77029999Y-90824857D01*
X76958570Y-90682000D01*
X76815713Y-90610571D01*
X76529999Y-90610571D01*
X76387142Y-90682000D01*
X76315713Y-90824857D01*
X76315713Y-90967714D01*
X77029999Y-91110571D01*
X75672856Y-90610571D02*
X75672856Y-91610571D01*
X75672856Y-90753429D02*
X75601428Y-90682000D01*
X75458570Y-90610571D01*
X75244285Y-90610571D01*
X75101428Y-90682000D01*
X75029999Y-90824857D01*
X75029999Y-91610571D01*
X74315713Y-91610571D02*
X74315713Y-90610571D01*
X74315713Y-90110571D02*
X74387142Y-90182000D01*
X74315713Y-90253429D01*
X74244285Y-90182000D01*
X74315713Y-90110571D01*
X74315713Y-90253429D01*
X72958570Y-91610571D02*
X72958570Y-90110571D01*
X72958570Y-91539143D02*
X73101427Y-91610571D01*
X73387141Y-91610571D01*
X73529999Y-91539143D01*
X73601427Y-91467714D01*
X73672856Y-91324857D01*
X73672856Y-90896286D01*
X73601427Y-90753429D01*
X73529999Y-90682000D01*
X73387141Y-90610571D01*
X73101427Y-90610571D01*
X72958570Y-90682000D01*
X72029998Y-91610571D02*
X72172856Y-91539143D01*
X72244284Y-91467714D01*
X72315713Y-91324857D01*
X72315713Y-90896286D01*
X72244284Y-90753429D01*
X72172856Y-90682000D01*
X72029998Y-90610571D01*
X71815713Y-90610571D01*
X71672856Y-90682000D01*
X71601427Y-90753429D01*
X71529998Y-90896286D01*
X71529998Y-91324857D01*
X71601427Y-91467714D01*
X71672856Y-91539143D01*
X71815713Y-91610571D01*
X72029998Y-91610571D01*
X70887141Y-90610571D02*
X70887141Y-91610571D01*
X70887141Y-90753429D02*
X70815713Y-90682000D01*
X70672855Y-90610571D01*
X70458570Y-90610571D01*
X70315713Y-90682000D01*
X70244284Y-90824857D01*
X70244284Y-91610571D01*
X68958570Y-91539143D02*
X69101427Y-91610571D01*
X69387141Y-91610571D01*
X69529998Y-91539143D01*
X69601427Y-91396286D01*
X69601427Y-90824857D01*
X69529998Y-90682000D01*
X69387141Y-90610571D01*
X69101427Y-90610571D01*
X68958570Y-90682000D01*
X68887141Y-90824857D01*
X68887141Y-90967714D01*
X69601427Y-91110571D01*
X87887141Y-86784571D02*
X88387141Y-86070286D01*
X88744284Y-86784571D02*
X88744284Y-85284571D01*
X88172856Y-85284571D01*
X88029998Y-85356000D01*
X87958570Y-85427429D01*
X87887141Y-85570286D01*
X87887141Y-85784571D01*
X87958570Y-85927429D01*
X88029998Y-85998857D01*
X88172856Y-86070286D01*
X88744284Y-86070286D01*
X86672856Y-86713143D02*
X86815713Y-86784571D01*
X87101427Y-86784571D01*
X87244284Y-86713143D01*
X87315713Y-86570286D01*
X87315713Y-85998857D01*
X87244284Y-85856000D01*
X87101427Y-85784571D01*
X86815713Y-85784571D01*
X86672856Y-85856000D01*
X86601427Y-85998857D01*
X86601427Y-86141714D01*
X87315713Y-86284571D01*
X86101427Y-85784571D02*
X85744284Y-86784571D01*
X85387142Y-85784571D01*
X84815713Y-86641714D02*
X84744285Y-86713143D01*
X84815713Y-86784571D01*
X84887142Y-86713143D01*
X84815713Y-86641714D01*
X84815713Y-86784571D01*
X84172856Y-86356000D02*
X83458570Y-86356000D01*
X84315713Y-86784571D02*
X83815713Y-85284571D01*
X83315713Y-86784571D01*
X81744285Y-85427429D02*
X81672856Y-85356000D01*
X81529999Y-85284571D01*
X81172856Y-85284571D01*
X81029999Y-85356000D01*
X80958570Y-85427429D01*
X80887142Y-85570286D01*
X80887142Y-85713143D01*
X80958570Y-85927429D01*
X81815713Y-86784571D01*
X80887142Y-86784571D01*
X79958571Y-85284571D02*
X79815714Y-85284571D01*
X79672857Y-85356000D01*
X79601428Y-85427429D01*
X79529999Y-85570286D01*
X79458571Y-85856000D01*
X79458571Y-86213143D01*
X79529999Y-86498857D01*
X79601428Y-86641714D01*
X79672857Y-86713143D01*
X79815714Y-86784571D01*
X79958571Y-86784571D01*
X80101428Y-86713143D01*
X80172857Y-86641714D01*
X80244285Y-86498857D01*
X80315714Y-86213143D01*
X80315714Y-85856000D01*
X80244285Y-85570286D01*
X80172857Y-85427429D01*
X80101428Y-85356000D01*
X79958571Y-85284571D01*
X78030000Y-86784571D02*
X78887143Y-86784571D01*
X78458571Y-86784571D02*
X78458571Y-85284571D01*
X78601428Y-85498857D01*
X78744286Y-85641714D01*
X78887143Y-85713143D01*
X77530000Y-85284571D02*
X76530000Y-85284571D01*
X77172857Y-86784571D01*
X75172858Y-86784571D02*
X76030001Y-86784571D01*
X75601429Y-86784571D02*
X75601429Y-85284571D01*
X75744286Y-85498857D01*
X75887144Y-85641714D01*
X76030001Y-85713143D01*
X74244287Y-85284571D02*
X74101430Y-85284571D01*
X73958573Y-85356000D01*
X73887144Y-85427429D01*
X73815715Y-85570286D01*
X73744287Y-85856000D01*
X73744287Y-86213143D01*
X73815715Y-86498857D01*
X73887144Y-86641714D01*
X73958573Y-86713143D01*
X74101430Y-86784571D01*
X74244287Y-86784571D01*
X74387144Y-86713143D01*
X74458573Y-86641714D01*
X74530001Y-86498857D01*
X74601430Y-86213143D01*
X74601430Y-85856000D01*
X74530001Y-85570286D01*
X74458573Y-85427429D01*
X74387144Y-85356000D01*
X74244287Y-85284571D01*
X95958570Y-88070571D02*
X95672856Y-89070571D01*
X95387142Y-88356286D01*
X95101427Y-89070571D01*
X94815713Y-88070571D01*
X94244284Y-89070571D02*
X94244284Y-88070571D01*
X94244284Y-87570571D02*
X94315713Y-87642000D01*
X94244284Y-87713429D01*
X94172856Y-87642000D01*
X94244284Y-87570571D01*
X94244284Y-87713429D01*
X93315712Y-89070571D02*
X93458570Y-88999143D01*
X93529998Y-88856286D01*
X93529998Y-87570571D01*
X92529998Y-89070571D02*
X92672856Y-88999143D01*
X92744284Y-88856286D01*
X92744284Y-87570571D01*
X91958570Y-89070571D02*
X91958570Y-88070571D01*
X91958570Y-87570571D02*
X92029999Y-87642000D01*
X91958570Y-87713429D01*
X91887142Y-87642000D01*
X91958570Y-87570571D01*
X91958570Y-87713429D01*
X90601427Y-89070571D02*
X90601427Y-88284857D01*
X90672856Y-88142000D01*
X90815713Y-88070571D01*
X91101427Y-88070571D01*
X91244284Y-88142000D01*
X90601427Y-88999143D02*
X90744284Y-89070571D01*
X91101427Y-89070571D01*
X91244284Y-88999143D01*
X91315713Y-88856286D01*
X91315713Y-88713429D01*
X91244284Y-88570571D01*
X91101427Y-88499143D01*
X90744284Y-88499143D01*
X90601427Y-88427714D01*
X89887141Y-89070571D02*
X89887141Y-88070571D01*
X89887141Y-88213429D02*
X89815713Y-88142000D01*
X89672855Y-88070571D01*
X89458570Y-88070571D01*
X89315713Y-88142000D01*
X89244284Y-88284857D01*
X89244284Y-89070571D01*
X89244284Y-88284857D02*
X89172855Y-88142000D01*
X89029998Y-88070571D01*
X88815713Y-88070571D01*
X88672855Y-88142000D01*
X88601427Y-88284857D01*
X88601427Y-89070571D01*
X86958570Y-88356286D02*
X87029998Y-88284857D01*
X87172855Y-88213429D01*
X87315713Y-88213429D01*
X87458570Y-88284857D01*
X87529998Y-88356286D01*
X87601427Y-88499143D01*
X87601427Y-88642000D01*
X87529998Y-88784857D01*
X87458570Y-88856286D01*
X87315713Y-88927714D01*
X87172855Y-88927714D01*
X87029998Y-88856286D01*
X86958570Y-88784857D01*
X86958570Y-88213429D02*
X86958570Y-88784857D01*
X86887141Y-88856286D01*
X86815713Y-88856286D01*
X86672855Y-88784857D01*
X86601427Y-88642000D01*
X86601427Y-88284857D01*
X86744284Y-88070571D01*
X86958570Y-87927714D01*
X87244284Y-87856286D01*
X87529998Y-87927714D01*
X87744284Y-88070571D01*
X87887141Y-88284857D01*
X87958570Y-88570571D01*
X87887141Y-88856286D01*
X87744284Y-89070571D01*
X87529998Y-89213429D01*
X87244284Y-89284857D01*
X86958570Y-89213429D01*
X86744284Y-89070571D01*
X85958570Y-89070571D02*
X85958570Y-87570571D01*
X85958570Y-88142000D02*
X85815713Y-88070571D01*
X85529999Y-88070571D01*
X85387142Y-88142000D01*
X85315713Y-88213429D01*
X85244284Y-88356286D01*
X85244284Y-88784857D01*
X85315713Y-88927714D01*
X85387142Y-88999143D01*
X85529999Y-89070571D01*
X85815713Y-89070571D01*
X85958570Y-88999143D01*
X84601427Y-89070571D02*
X84601427Y-88070571D01*
X84601427Y-88356286D02*
X84529999Y-88213429D01*
X84458570Y-88142000D01*
X84315713Y-88070571D01*
X84172856Y-88070571D01*
X83458570Y-89070571D02*
X83601428Y-88999143D01*
X83672856Y-88927714D01*
X83744285Y-88784857D01*
X83744285Y-88356286D01*
X83672856Y-88213429D01*
X83601428Y-88142000D01*
X83458570Y-88070571D01*
X83244285Y-88070571D01*
X83101428Y-88142000D01*
X83029999Y-88213429D01*
X82958570Y-88356286D01*
X82958570Y-88784857D01*
X83029999Y-88927714D01*
X83101428Y-88999143D01*
X83244285Y-89070571D01*
X83458570Y-89070571D01*
X81672856Y-89070571D02*
X81672856Y-87570571D01*
X81672856Y-88999143D02*
X81815713Y-89070571D01*
X82101427Y-89070571D01*
X82244285Y-88999143D01*
X82315713Y-88927714D01*
X82387142Y-88784857D01*
X82387142Y-88356286D01*
X82315713Y-88213429D01*
X82244285Y-88142000D01*
X82101427Y-88070571D01*
X81815713Y-88070571D01*
X81672856Y-88142000D01*
X80958570Y-89070571D02*
X80958570Y-88070571D01*
X80958570Y-87570571D02*
X81029999Y-87642000D01*
X80958570Y-87713429D01*
X80887142Y-87642000D01*
X80958570Y-87570571D01*
X80958570Y-87713429D01*
X79672856Y-88999143D02*
X79815713Y-89070571D01*
X80101427Y-89070571D01*
X80244284Y-88999143D01*
X80315713Y-88856286D01*
X80315713Y-88284857D01*
X80244284Y-88142000D01*
X80101427Y-88070571D01*
X79815713Y-88070571D01*
X79672856Y-88142000D01*
X79601427Y-88284857D01*
X79601427Y-88427714D01*
X80315713Y-88570571D01*
X78958570Y-88499143D02*
X77815713Y-88499143D01*
X77315713Y-88070571D02*
X76744284Y-88070571D01*
X77101427Y-87570571D02*
X77101427Y-88856286D01*
X77029999Y-88999143D01*
X76887141Y-89070571D01*
X76744284Y-89070571D01*
X76387141Y-88070571D02*
X76029998Y-89070571D01*
X75672856Y-88070571D02*
X76029998Y-89070571D01*
X76172856Y-89427714D01*
X76244284Y-89499143D01*
X76387141Y-89570571D01*
X75101427Y-89070571D02*
X75101427Y-88070571D01*
X75101427Y-88356286D02*
X75029999Y-88213429D01*
X74958570Y-88142000D01*
X74815713Y-88070571D01*
X74672856Y-88070571D01*
X74172856Y-89070571D02*
X74172856Y-88070571D01*
X74172856Y-88356286D02*
X74101428Y-88213429D01*
X74029999Y-88142000D01*
X73887142Y-88070571D01*
X73744285Y-88070571D01*
X72672857Y-88999143D02*
X72815714Y-89070571D01*
X73101428Y-89070571D01*
X73244285Y-88999143D01*
X73315714Y-88856286D01*
X73315714Y-88284857D01*
X73244285Y-88142000D01*
X73101428Y-88070571D01*
X72815714Y-88070571D01*
X72672857Y-88142000D01*
X72601428Y-88284857D01*
X72601428Y-88427714D01*
X73315714Y-88570571D01*
X71744285Y-89070571D02*
X71887143Y-88999143D01*
X71958571Y-88856286D01*
X71958571Y-87570571D01*
X70958571Y-89070571D02*
X71101429Y-88999143D01*
X71172857Y-88856286D01*
X71172857Y-87570571D01*
X70387143Y-88927714D02*
X70315715Y-88999143D01*
X70387143Y-89070571D01*
X70458572Y-88999143D01*
X70387143Y-88927714D01*
X70387143Y-89070571D01*
X69458571Y-89070571D02*
X69601429Y-88999143D01*
X69672857Y-88927714D01*
X69744286Y-88784857D01*
X69744286Y-88356286D01*
X69672857Y-88213429D01*
X69601429Y-88142000D01*
X69458571Y-88070571D01*
X69244286Y-88070571D01*
X69101429Y-88142000D01*
X69030000Y-88213429D01*
X68958571Y-88356286D01*
X68958571Y-88784857D01*
X69030000Y-88927714D01*
X69101429Y-88999143D01*
X69244286Y-89070571D01*
X69458571Y-89070571D01*
X68315714Y-89070571D02*
X68315714Y-88070571D01*
X68315714Y-88356286D02*
X68244286Y-88213429D01*
X68172857Y-88142000D01*
X68030000Y-88070571D01*
X67887143Y-88070571D01*
X66744286Y-88070571D02*
X66744286Y-89284857D01*
X66815715Y-89427714D01*
X66887143Y-89499143D01*
X67030000Y-89570571D01*
X67244286Y-89570571D01*
X67387143Y-89499143D01*
X66744286Y-88999143D02*
X66887143Y-89070571D01*
X67172857Y-89070571D01*
X67315715Y-88999143D01*
X67387143Y-88927714D01*
X67458572Y-88784857D01*
X67458572Y-88356286D01*
X67387143Y-88213429D01*
X67315715Y-88142000D01*
X67172857Y-88070571D01*
X66887143Y-88070571D01*
X66744286Y-88142000D01*
X92261429Y-45887142D02*
X92261429Y-46172856D01*
X92190000Y-46315714D01*
X92047143Y-46458571D01*
X91761429Y-46529999D01*
X91261429Y-46529999D01*
X90975714Y-46458571D01*
X90832857Y-46315714D01*
X90761429Y-46172856D01*
X90761429Y-45887142D01*
X90832857Y-45744285D01*
X90975714Y-45601428D01*
X91261429Y-45529999D01*
X91761429Y-45529999D01*
X92047143Y-45601428D01*
X92190000Y-45744285D01*
X92261429Y-45887142D01*
X91761429Y-47815714D02*
X90761429Y-47815714D01*
X91761429Y-47172857D02*
X90975714Y-47172857D01*
X90832857Y-47244285D01*
X90761429Y-47387143D01*
X90761429Y-47601428D01*
X90832857Y-47744285D01*
X90904286Y-47815714D01*
X91761429Y-48315714D02*
X91761429Y-48887143D01*
X92261429Y-48530000D02*
X90975714Y-48530000D01*
X90832857Y-48601428D01*
X90761429Y-48744286D01*
X90761429Y-48887143D01*
X91761429Y-49387143D02*
X90261429Y-49387143D01*
X91690000Y-49387143D02*
X91761429Y-49530000D01*
X91761429Y-49815714D01*
X91690000Y-49958571D01*
X91618571Y-50030000D01*
X91475714Y-50101429D01*
X91047143Y-50101429D01*
X90904286Y-50030000D01*
X90832857Y-49958571D01*
X90761429Y-49815714D01*
X90761429Y-49530000D01*
X90832857Y-49387143D01*
X91761429Y-51387143D02*
X90761429Y-51387143D01*
X91761429Y-50744286D02*
X90975714Y-50744286D01*
X90832857Y-50815714D01*
X90761429Y-50958572D01*
X90761429Y-51172857D01*
X90832857Y-51315714D01*
X90904286Y-51387143D01*
X91761429Y-51887143D02*
X91761429Y-52458572D01*
X92261429Y-52101429D02*
X90975714Y-52101429D01*
X90832857Y-52172857D01*
X90761429Y-52315715D01*
X90761429Y-52458572D01*
X90832857Y-52887143D02*
X90761429Y-53030000D01*
X90761429Y-53315715D01*
X90832857Y-53458572D01*
X90975714Y-53530000D01*
X91047143Y-53530000D01*
X91190000Y-53458572D01*
X91261429Y-53315715D01*
X91261429Y-53101429D01*
X91332857Y-52958572D01*
X91475714Y-52887143D01*
X91547143Y-52887143D01*
X91690000Y-52958572D01*
X91761429Y-53101429D01*
X91761429Y-53315715D01*
X91690000Y-53458572D01*
X70528571Y-52601429D02*
X69028571Y-52601429D01*
X69528571Y-51887143D02*
X70528571Y-51887143D01*
X69671429Y-51887143D02*
X69600000Y-51815715D01*
X69528571Y-51672857D01*
X69528571Y-51458572D01*
X69600000Y-51315715D01*
X69742857Y-51244286D01*
X70528571Y-51244286D01*
X69528571Y-50530000D02*
X71028571Y-50530000D01*
X69600000Y-50530000D02*
X69528571Y-50387143D01*
X69528571Y-50101429D01*
X69600000Y-49958572D01*
X69671429Y-49887143D01*
X69814286Y-49815714D01*
X70242857Y-49815714D01*
X70385714Y-49887143D01*
X70457143Y-49958572D01*
X70528571Y-50101429D01*
X70528571Y-50387143D01*
X70457143Y-50530000D01*
X69528571Y-48530000D02*
X70528571Y-48530000D01*
X69528571Y-49172857D02*
X70314286Y-49172857D01*
X70457143Y-49101429D01*
X70528571Y-48958571D01*
X70528571Y-48744286D01*
X70457143Y-48601429D01*
X70385714Y-48530000D01*
X69528571Y-48030000D02*
X69528571Y-47458571D01*
X69028571Y-47815714D02*
X70314286Y-47815714D01*
X70457143Y-47744286D01*
X70528571Y-47601428D01*
X70528571Y-47458571D01*
X70457143Y-47030000D02*
X70528571Y-46887143D01*
X70528571Y-46601428D01*
X70457143Y-46458571D01*
X70314286Y-46387143D01*
X70242857Y-46387143D01*
X70100000Y-46458571D01*
X70028571Y-46601428D01*
X70028571Y-46815714D01*
X69957143Y-46958571D01*
X69814286Y-47030000D01*
X69742857Y-47030000D01*
X69600000Y-46958571D01*
X69528571Y-46815714D01*
X69528571Y-46601428D01*
X69600000Y-46458571D01*
X96647143Y-57670000D02*
X96790000Y-57598571D01*
X97004286Y-57598571D01*
X97218571Y-57670000D01*
X97361429Y-57812857D01*
X97432857Y-57955714D01*
X97504286Y-58241429D01*
X97504286Y-58455714D01*
X97432857Y-58741429D01*
X97361429Y-58884286D01*
X97218571Y-59027143D01*
X97004286Y-59098571D01*
X96861429Y-59098571D01*
X96647143Y-59027143D01*
X96575714Y-58955714D01*
X96575714Y-58455714D01*
X96861429Y-58455714D01*
X95932857Y-59098571D02*
X95932857Y-57598571D01*
X95075714Y-59098571D01*
X95075714Y-57598571D01*
X94361428Y-59098571D02*
X94361428Y-57598571D01*
X94004285Y-57598571D01*
X93790000Y-57670000D01*
X93647142Y-57812857D01*
X93575714Y-57955714D01*
X93504285Y-58241429D01*
X93504285Y-58455714D01*
X93575714Y-58741429D01*
X93647142Y-58884286D01*
X93790000Y-59027143D01*
X94004285Y-59098571D01*
X94361428Y-59098571D01*
X96647143Y-52590000D02*
X96790000Y-52518571D01*
X97004286Y-52518571D01*
X97218571Y-52590000D01*
X97361429Y-52732857D01*
X97432857Y-52875714D01*
X97504286Y-53161429D01*
X97504286Y-53375714D01*
X97432857Y-53661429D01*
X97361429Y-53804286D01*
X97218571Y-53947143D01*
X97004286Y-54018571D01*
X96861429Y-54018571D01*
X96647143Y-53947143D01*
X96575714Y-53875714D01*
X96575714Y-53375714D01*
X96861429Y-53375714D01*
X95932857Y-54018571D02*
X95932857Y-52518571D01*
X95075714Y-54018571D01*
X95075714Y-52518571D01*
X94361428Y-54018571D02*
X94361428Y-52518571D01*
X94004285Y-52518571D01*
X93790000Y-52590000D01*
X93647142Y-52732857D01*
X93575714Y-52875714D01*
X93504285Y-53161429D01*
X93504285Y-53375714D01*
X93575714Y-53661429D01*
X93647142Y-53804286D01*
X93790000Y-53947143D01*
X94004285Y-54018571D01*
X94361428Y-54018571D01*
X96647143Y-47510000D02*
X96790000Y-47438571D01*
X97004286Y-47438571D01*
X97218571Y-47510000D01*
X97361429Y-47652857D01*
X97432857Y-47795714D01*
X97504286Y-48081429D01*
X97504286Y-48295714D01*
X97432857Y-48581429D01*
X97361429Y-48724286D01*
X97218571Y-48867143D01*
X97004286Y-48938571D01*
X96861429Y-48938571D01*
X96647143Y-48867143D01*
X96575714Y-48795714D01*
X96575714Y-48295714D01*
X96861429Y-48295714D01*
X95932857Y-48938571D02*
X95932857Y-47438571D01*
X95075714Y-48938571D01*
X95075714Y-47438571D01*
X94361428Y-48938571D02*
X94361428Y-47438571D01*
X94004285Y-47438571D01*
X93790000Y-47510000D01*
X93647142Y-47652857D01*
X93575714Y-47795714D01*
X93504285Y-48081429D01*
X93504285Y-48295714D01*
X93575714Y-48581429D01*
X93647142Y-48724286D01*
X93790000Y-48867143D01*
X94004285Y-48938571D01*
X94361428Y-48938571D01*
X96647143Y-42430000D02*
X96790000Y-42358571D01*
X97004286Y-42358571D01*
X97218571Y-42430000D01*
X97361429Y-42572857D01*
X97432857Y-42715714D01*
X97504286Y-43001429D01*
X97504286Y-43215714D01*
X97432857Y-43501429D01*
X97361429Y-43644286D01*
X97218571Y-43787143D01*
X97004286Y-43858571D01*
X96861429Y-43858571D01*
X96647143Y-43787143D01*
X96575714Y-43715714D01*
X96575714Y-43215714D01*
X96861429Y-43215714D01*
X95932857Y-43858571D02*
X95932857Y-42358571D01*
X95075714Y-43858571D01*
X95075714Y-42358571D01*
X94361428Y-43858571D02*
X94361428Y-42358571D01*
X94004285Y-42358571D01*
X93790000Y-42430000D01*
X93647142Y-42572857D01*
X93575714Y-42715714D01*
X93504285Y-43001429D01*
X93504285Y-43215714D01*
X93575714Y-43501429D01*
X93647142Y-43644286D01*
X93790000Y-43787143D01*
X94004285Y-43858571D01*
X94361428Y-43858571D01*
X97432857Y-56558571D02*
X97432857Y-55058571D01*
X97075714Y-55058571D01*
X96861429Y-55130000D01*
X96718571Y-55272857D01*
X96647143Y-55415714D01*
X96575714Y-55701429D01*
X96575714Y-55915714D01*
X96647143Y-56201429D01*
X96718571Y-56344286D01*
X96861429Y-56487143D01*
X97075714Y-56558571D01*
X97432857Y-56558571D01*
X97504286Y-40890000D02*
X96790000Y-40890000D01*
X97647143Y-41318571D02*
X97147143Y-39818571D01*
X96647143Y-41318571D01*
X96932857Y-45612857D02*
X96718571Y-45684286D01*
X96647143Y-45755714D01*
X96575714Y-45898571D01*
X96575714Y-46112857D01*
X96647143Y-46255714D01*
X96718571Y-46327143D01*
X96861429Y-46398571D01*
X97432857Y-46398571D01*
X97432857Y-44898571D01*
X96932857Y-44898571D01*
X96790000Y-44970000D01*
X96718571Y-45041429D01*
X96647143Y-45184286D01*
X96647143Y-45327143D01*
X96718571Y-45470000D01*
X96790000Y-45541429D01*
X96932857Y-45612857D01*
X97432857Y-45612857D01*
X96575714Y-51335714D02*
X96647143Y-51407143D01*
X96861429Y-51478571D01*
X97004286Y-51478571D01*
X97218571Y-51407143D01*
X97361429Y-51264286D01*
X97432857Y-51121429D01*
X97504286Y-50835714D01*
X97504286Y-50621429D01*
X97432857Y-50335714D01*
X97361429Y-50192857D01*
X97218571Y-50050000D01*
X97004286Y-49978571D01*
X96861429Y-49978571D01*
X96647143Y-50050000D01*
X96575714Y-50121429D01*
X67516000Y-59098571D02*
X67516000Y-57598571D01*
X67158857Y-57598571D01*
X66944572Y-57670000D01*
X66801714Y-57812857D01*
X66730286Y-57955714D01*
X66658857Y-58241429D01*
X66658857Y-58455714D01*
X66730286Y-58741429D01*
X66801714Y-58884286D01*
X66944572Y-59027143D01*
X67158857Y-59098571D01*
X67516000Y-59098571D01*
X66016000Y-58527143D02*
X64873143Y-58527143D01*
X67516000Y-56558571D02*
X67516000Y-55058571D01*
X67158857Y-55058571D01*
X66944572Y-55130000D01*
X66801714Y-55272857D01*
X66730286Y-55415714D01*
X66658857Y-55701429D01*
X66658857Y-55915714D01*
X66730286Y-56201429D01*
X66801714Y-56344286D01*
X66944572Y-56487143D01*
X67158857Y-56558571D01*
X67516000Y-56558571D01*
X66016000Y-55987143D02*
X64873143Y-55987143D01*
X65444572Y-56558571D02*
X65444572Y-55415714D01*
X66658857Y-53875714D02*
X66730286Y-53947143D01*
X66944572Y-54018571D01*
X67087429Y-54018571D01*
X67301714Y-53947143D01*
X67444572Y-53804286D01*
X67516000Y-53661429D01*
X67587429Y-53375714D01*
X67587429Y-53161429D01*
X67516000Y-52875714D01*
X67444572Y-52732857D01*
X67301714Y-52590000D01*
X67087429Y-52518571D01*
X66944572Y-52518571D01*
X66730286Y-52590000D01*
X66658857Y-52661429D01*
X66016000Y-53447143D02*
X64873143Y-53447143D01*
X66658857Y-51335714D02*
X66730286Y-51407143D01*
X66944572Y-51478571D01*
X67087429Y-51478571D01*
X67301714Y-51407143D01*
X67444572Y-51264286D01*
X67516000Y-51121429D01*
X67587429Y-50835714D01*
X67587429Y-50621429D01*
X67516000Y-50335714D01*
X67444572Y-50192857D01*
X67301714Y-50050000D01*
X67087429Y-49978571D01*
X66944572Y-49978571D01*
X66730286Y-50050000D01*
X66658857Y-50121429D01*
X66016000Y-50907143D02*
X64873143Y-50907143D01*
X65444572Y-51478571D02*
X65444572Y-50335714D01*
X67016000Y-48152857D02*
X66801714Y-48224286D01*
X66730286Y-48295714D01*
X66658857Y-48438571D01*
X66658857Y-48652857D01*
X66730286Y-48795714D01*
X66801714Y-48867143D01*
X66944572Y-48938571D01*
X67516000Y-48938571D01*
X67516000Y-47438571D01*
X67016000Y-47438571D01*
X66873143Y-47510000D01*
X66801714Y-47581429D01*
X66730286Y-47724286D01*
X66730286Y-47867143D01*
X66801714Y-48010000D01*
X66873143Y-48081429D01*
X67016000Y-48152857D01*
X67516000Y-48152857D01*
X66016000Y-48367143D02*
X64873143Y-48367143D01*
X67016000Y-45612857D02*
X66801714Y-45684286D01*
X66730286Y-45755714D01*
X66658857Y-45898571D01*
X66658857Y-46112857D01*
X66730286Y-46255714D01*
X66801714Y-46327143D01*
X66944572Y-46398571D01*
X67516000Y-46398571D01*
X67516000Y-44898571D01*
X67016000Y-44898571D01*
X66873143Y-44970000D01*
X66801714Y-45041429D01*
X66730286Y-45184286D01*
X66730286Y-45327143D01*
X66801714Y-45470000D01*
X66873143Y-45541429D01*
X67016000Y-45612857D01*
X67516000Y-45612857D01*
X66016000Y-45827143D02*
X64873143Y-45827143D01*
X65444572Y-46398571D02*
X65444572Y-45255714D01*
X67373143Y-43430000D02*
X66658857Y-43430000D01*
X67516000Y-43858571D02*
X67016000Y-42358571D01*
X66516000Y-43858571D01*
X66016000Y-43287143D02*
X64873143Y-43287143D01*
X67373143Y-40890000D02*
X66658857Y-40890000D01*
X67516000Y-41318571D02*
X67016000Y-39818571D01*
X66516000Y-41318571D01*
X66016000Y-40747143D02*
X64873143Y-40747143D01*
X65444572Y-41318571D02*
X65444572Y-40175714D01*
M02*
