G04 #@! TF.FileFunction,Legend,Top*
%FSLAX46Y46*%
G04 Gerber Fmt 4.6, Leading zero omitted, Abs format (unit mm)*
G04 Created by KiCad (PCBNEW 4.0.5-e0-6337~49~ubuntu15.04.1) date Tue Oct 24 21:27:12 2017*
%MOMM*%
%LPD*%
G01*
G04 APERTURE LIST*
%ADD10C,0.100000*%
%ADD11C,0.300000*%
%ADD12C,0.120000*%
%ADD13C,0.150000*%
G04 APERTURE END LIST*
D10*
D11*
X68530001Y-88324571D02*
X68530001Y-89324571D01*
X68172858Y-87753143D02*
X67815715Y-88824571D01*
X68744287Y-88824571D01*
X69958572Y-89253143D02*
X69815715Y-89324571D01*
X69530001Y-89324571D01*
X69387143Y-89253143D01*
X69315715Y-89181714D01*
X69244286Y-89038857D01*
X69244286Y-88610286D01*
X69315715Y-88467429D01*
X69387143Y-88396000D01*
X69530001Y-88324571D01*
X69815715Y-88324571D01*
X69958572Y-88396000D01*
X70601429Y-89324571D02*
X70601429Y-87824571D01*
X71244286Y-89324571D02*
X71244286Y-88538857D01*
X71172857Y-88396000D01*
X71030000Y-88324571D01*
X70815715Y-88324571D01*
X70672857Y-88396000D01*
X70601429Y-88467429D01*
X73101429Y-89324571D02*
X73101429Y-87824571D01*
X73458572Y-87824571D01*
X73672857Y-87896000D01*
X73815715Y-88038857D01*
X73887143Y-88181714D01*
X73958572Y-88467429D01*
X73958572Y-88681714D01*
X73887143Y-88967429D01*
X73815715Y-89110286D01*
X73672857Y-89253143D01*
X73458572Y-89324571D01*
X73101429Y-89324571D01*
X74601429Y-89324571D02*
X74601429Y-88324571D01*
X74601429Y-87824571D02*
X74530000Y-87896000D01*
X74601429Y-87967429D01*
X74672857Y-87896000D01*
X74601429Y-87824571D01*
X74601429Y-87967429D01*
X75101429Y-88324571D02*
X75672858Y-88324571D01*
X75315715Y-89324571D02*
X75315715Y-88038857D01*
X75387143Y-87896000D01*
X75530001Y-87824571D01*
X75672858Y-87824571D01*
X75958572Y-88324571D02*
X76530001Y-88324571D01*
X76172858Y-89324571D02*
X76172858Y-88038857D01*
X76244286Y-87896000D01*
X76387144Y-87824571D01*
X76530001Y-87824571D01*
X77601429Y-89253143D02*
X77458572Y-89324571D01*
X77172858Y-89324571D01*
X77030001Y-89253143D01*
X76958572Y-89110286D01*
X76958572Y-88538857D01*
X77030001Y-88396000D01*
X77172858Y-88324571D01*
X77458572Y-88324571D01*
X77601429Y-88396000D01*
X77672858Y-88538857D01*
X77672858Y-88681714D01*
X76958572Y-88824571D01*
X78315715Y-89324571D02*
X78315715Y-88324571D01*
X78315715Y-88610286D02*
X78387143Y-88467429D01*
X78458572Y-88396000D01*
X78601429Y-88324571D01*
X78744286Y-88324571D01*
X79815714Y-89253143D02*
X79672857Y-89324571D01*
X79387143Y-89324571D01*
X79244286Y-89253143D01*
X79172857Y-89110286D01*
X79172857Y-88538857D01*
X79244286Y-88396000D01*
X79387143Y-88324571D01*
X79672857Y-88324571D01*
X79815714Y-88396000D01*
X79887143Y-88538857D01*
X79887143Y-88681714D01*
X79172857Y-88824571D01*
X80530000Y-88324571D02*
X80530000Y-89324571D01*
X80530000Y-88467429D02*
X80601428Y-88396000D01*
X80744286Y-88324571D01*
X80958571Y-88324571D01*
X81101428Y-88396000D01*
X81172857Y-88538857D01*
X81172857Y-89324571D01*
X81672857Y-88324571D02*
X82244286Y-88324571D01*
X81887143Y-87824571D02*
X81887143Y-89110286D01*
X81958571Y-89253143D01*
X82101429Y-89324571D01*
X82244286Y-89324571D01*
X82744286Y-89324571D02*
X82744286Y-88324571D01*
X82744286Y-87824571D02*
X82672857Y-87896000D01*
X82744286Y-87967429D01*
X82815714Y-87896000D01*
X82744286Y-87824571D01*
X82744286Y-87967429D01*
X84101429Y-89324571D02*
X84101429Y-88538857D01*
X84030000Y-88396000D01*
X83887143Y-88324571D01*
X83601429Y-88324571D01*
X83458572Y-88396000D01*
X84101429Y-89253143D02*
X83958572Y-89324571D01*
X83601429Y-89324571D01*
X83458572Y-89253143D01*
X83387143Y-89110286D01*
X83387143Y-88967429D01*
X83458572Y-88824571D01*
X83601429Y-88753143D01*
X83958572Y-88753143D01*
X84101429Y-88681714D01*
X85030001Y-89324571D02*
X84887143Y-89253143D01*
X84815715Y-89110286D01*
X84815715Y-87824571D01*
X87458572Y-89324571D02*
X86744286Y-89324571D01*
X86744286Y-87824571D01*
X87958572Y-89324571D02*
X87958572Y-88324571D01*
X87958572Y-87824571D02*
X87887143Y-87896000D01*
X87958572Y-87967429D01*
X88030000Y-87896000D01*
X87958572Y-87824571D01*
X87958572Y-87967429D01*
X88672858Y-88324571D02*
X88672858Y-89324571D01*
X88672858Y-88467429D02*
X88744286Y-88396000D01*
X88887144Y-88324571D01*
X89101429Y-88324571D01*
X89244286Y-88396000D01*
X89315715Y-88538857D01*
X89315715Y-89324571D01*
X90601429Y-89253143D02*
X90458572Y-89324571D01*
X90172858Y-89324571D01*
X90030001Y-89253143D01*
X89958572Y-89110286D01*
X89958572Y-88538857D01*
X90030001Y-88396000D01*
X90172858Y-88324571D01*
X90458572Y-88324571D01*
X90601429Y-88396000D01*
X90672858Y-88538857D01*
X90672858Y-88681714D01*
X89958572Y-88824571D01*
X93315715Y-89324571D02*
X92815715Y-88610286D01*
X92458572Y-89324571D02*
X92458572Y-87824571D01*
X93030000Y-87824571D01*
X93172858Y-87896000D01*
X93244286Y-87967429D01*
X93315715Y-88110286D01*
X93315715Y-88324571D01*
X93244286Y-88467429D01*
X93172858Y-88538857D01*
X93030000Y-88610286D01*
X92458572Y-88610286D01*
X93815715Y-87824571D02*
X94815715Y-89324571D01*
X94815715Y-87824571D02*
X93815715Y-89324571D01*
X100100000Y-60646571D02*
X100385714Y-60646571D01*
X100528572Y-60718000D01*
X100671429Y-60860857D01*
X100742857Y-61146571D01*
X100742857Y-61646571D01*
X100671429Y-61932286D01*
X100528572Y-62075143D01*
X100385714Y-62146571D01*
X100100000Y-62146571D01*
X99957143Y-62075143D01*
X99814286Y-61932286D01*
X99742857Y-61646571D01*
X99742857Y-61146571D01*
X99814286Y-60860857D01*
X99957143Y-60718000D01*
X100100000Y-60646571D01*
X101385715Y-60646571D02*
X101385715Y-61860857D01*
X101457143Y-62003714D01*
X101528572Y-62075143D01*
X101671429Y-62146571D01*
X101957143Y-62146571D01*
X102100001Y-62075143D01*
X102171429Y-62003714D01*
X102242858Y-61860857D01*
X102242858Y-60646571D01*
X102742858Y-60646571D02*
X103600001Y-60646571D01*
X103171430Y-62146571D02*
X103171430Y-60646571D01*
X92341000Y-76987285D02*
X92269571Y-77101571D01*
X92269571Y-77273000D01*
X92341000Y-77444428D01*
X92483857Y-77558714D01*
X92626714Y-77615857D01*
X92912429Y-77673000D01*
X93126714Y-77673000D01*
X93412429Y-77615857D01*
X93555286Y-77558714D01*
X93698143Y-77444428D01*
X93769571Y-77273000D01*
X93769571Y-77158714D01*
X93698143Y-76987285D01*
X93626714Y-76930142D01*
X93126714Y-76930142D01*
X93126714Y-77158714D01*
X93769571Y-76415857D02*
X92269571Y-76415857D01*
X93769571Y-75730142D01*
X92269571Y-75730142D01*
X93769571Y-75158714D02*
X92269571Y-75158714D01*
X92269571Y-74872999D01*
X92341000Y-74701571D01*
X92483857Y-74587285D01*
X92626714Y-74530142D01*
X92912429Y-74472999D01*
X93126714Y-74472999D01*
X93412429Y-74530142D01*
X93555286Y-74587285D01*
X93698143Y-74701571D01*
X93769571Y-74872999D01*
X93769571Y-75158714D01*
X92269571Y-82765713D02*
X93769571Y-82365713D01*
X92269571Y-81965713D01*
X92983857Y-81565714D02*
X92983857Y-81165714D01*
X93769571Y-80994285D02*
X93769571Y-81565714D01*
X92269571Y-81565714D01*
X92269571Y-80994285D01*
X92983857Y-80480000D02*
X92983857Y-80080000D01*
X93769571Y-79908571D02*
X93769571Y-80480000D01*
X92269571Y-80480000D01*
X92269571Y-79908571D01*
X92269571Y-72846999D02*
X93769571Y-72446999D01*
X92269571Y-72046999D01*
X93626714Y-70961285D02*
X93698143Y-71018428D01*
X93769571Y-71189857D01*
X93769571Y-71304143D01*
X93698143Y-71475571D01*
X93555286Y-71589857D01*
X93412429Y-71647000D01*
X93126714Y-71704143D01*
X92912429Y-71704143D01*
X92626714Y-71647000D01*
X92483857Y-71589857D01*
X92341000Y-71475571D01*
X92269571Y-71304143D01*
X92269571Y-71189857D01*
X92341000Y-71018428D01*
X92412429Y-70961285D01*
X93626714Y-69761285D02*
X93698143Y-69818428D01*
X93769571Y-69989857D01*
X93769571Y-70104143D01*
X93698143Y-70275571D01*
X93555286Y-70389857D01*
X93412429Y-70447000D01*
X93126714Y-70504143D01*
X92912429Y-70504143D01*
X92626714Y-70447000D01*
X92483857Y-70389857D01*
X92341000Y-70275571D01*
X92269571Y-70104143D01*
X92269571Y-69989857D01*
X92341000Y-69818428D01*
X92412429Y-69761285D01*
X69354000Y-77114285D02*
X69282571Y-77228571D01*
X69282571Y-77400000D01*
X69354000Y-77571428D01*
X69496857Y-77685714D01*
X69639714Y-77742857D01*
X69925429Y-77800000D01*
X70139714Y-77800000D01*
X70425429Y-77742857D01*
X70568286Y-77685714D01*
X70711143Y-77571428D01*
X70782571Y-77400000D01*
X70782571Y-77285714D01*
X70711143Y-77114285D01*
X70639714Y-77057142D01*
X70139714Y-77057142D01*
X70139714Y-77285714D01*
X70782571Y-76542857D02*
X69282571Y-76542857D01*
X70782571Y-75857142D01*
X69282571Y-75857142D01*
X70782571Y-75285714D02*
X69282571Y-75285714D01*
X69282571Y-74999999D01*
X69354000Y-74828571D01*
X69496857Y-74714285D01*
X69639714Y-74657142D01*
X69925429Y-74599999D01*
X70139714Y-74599999D01*
X70425429Y-74657142D01*
X70568286Y-74714285D01*
X70711143Y-74828571D01*
X70782571Y-74999999D01*
X70782571Y-75285714D01*
X70211143Y-82880000D02*
X70211143Y-81965714D01*
X69282571Y-80822857D02*
X69282571Y-81394286D01*
X69996857Y-81451429D01*
X69925429Y-81394286D01*
X69854000Y-81280000D01*
X69854000Y-80994286D01*
X69925429Y-80880000D01*
X69996857Y-80822857D01*
X70139714Y-80765714D01*
X70496857Y-80765714D01*
X70639714Y-80822857D01*
X70711143Y-80880000D01*
X70782571Y-80994286D01*
X70782571Y-81280000D01*
X70711143Y-81394286D01*
X70639714Y-81451429D01*
X69282571Y-80022857D02*
X69282571Y-79908572D01*
X69354000Y-79794286D01*
X69425429Y-79737143D01*
X69568286Y-79680000D01*
X69854000Y-79622857D01*
X70211143Y-79622857D01*
X70496857Y-79680000D01*
X70639714Y-79737143D01*
X70711143Y-79794286D01*
X70782571Y-79908572D01*
X70782571Y-80022857D01*
X70711143Y-80137143D01*
X70639714Y-80194286D01*
X70496857Y-80251429D01*
X70211143Y-80308572D01*
X69854000Y-80308572D01*
X69568286Y-80251429D01*
X69425429Y-80194286D01*
X69354000Y-80137143D01*
X69282571Y-80022857D01*
X70084143Y-72720000D02*
X70084143Y-71805714D01*
X70655571Y-72262857D02*
X69512714Y-72262857D01*
X69155571Y-70662857D02*
X69155571Y-71234286D01*
X69869857Y-71291429D01*
X69798429Y-71234286D01*
X69727000Y-71120000D01*
X69727000Y-70834286D01*
X69798429Y-70720000D01*
X69869857Y-70662857D01*
X70012714Y-70605714D01*
X70369857Y-70605714D01*
X70512714Y-70662857D01*
X70584143Y-70720000D01*
X70655571Y-70834286D01*
X70655571Y-71120000D01*
X70584143Y-71234286D01*
X70512714Y-71291429D01*
X69155571Y-69862857D02*
X69155571Y-69748572D01*
X69227000Y-69634286D01*
X69298429Y-69577143D01*
X69441286Y-69520000D01*
X69727000Y-69462857D01*
X70084143Y-69462857D01*
X70369857Y-69520000D01*
X70512714Y-69577143D01*
X70584143Y-69634286D01*
X70655571Y-69748572D01*
X70655571Y-69862857D01*
X70584143Y-69977143D01*
X70512714Y-70034286D01*
X70369857Y-70091429D01*
X70084143Y-70148572D01*
X69727000Y-70148572D01*
X69441286Y-70091429D01*
X69298429Y-70034286D01*
X69227000Y-69977143D01*
X69155571Y-69862857D01*
X60174286Y-62146571D02*
X60174286Y-60646571D01*
X60888572Y-62146571D02*
X60888572Y-60646571D01*
X61745715Y-62146571D01*
X61745715Y-60646571D01*
D12*
X71112000Y-39790000D02*
X70112000Y-39790000D01*
X70112000Y-41490000D02*
X71112000Y-41490000D01*
X70112000Y-44030000D02*
X71112000Y-44030000D01*
X71112000Y-42330000D02*
X70112000Y-42330000D01*
X71112000Y-44870000D02*
X70112000Y-44870000D01*
X70112000Y-46570000D02*
X71112000Y-46570000D01*
X70112000Y-49110000D02*
X71112000Y-49110000D01*
X71112000Y-47410000D02*
X70112000Y-47410000D01*
X72914000Y-74426000D02*
X74914000Y-74426000D01*
X74914000Y-72386000D02*
X72914000Y-72386000D01*
X91190000Y-72858000D02*
X91190000Y-70858000D01*
X89150000Y-70858000D02*
X89150000Y-72858000D01*
X93468000Y-38092000D02*
X93468000Y-40092000D01*
X95508000Y-40092000D02*
X95508000Y-38092000D01*
X93468000Y-57166000D02*
X93468000Y-59166000D01*
X95508000Y-59166000D02*
X95508000Y-57166000D01*
X74914000Y-77974000D02*
X72914000Y-77974000D01*
X72914000Y-80014000D02*
X74914000Y-80014000D01*
X89150000Y-78986000D02*
X89150000Y-80986000D01*
X91190000Y-80986000D02*
X91190000Y-78986000D01*
X79252000Y-33766000D02*
X79252000Y-31766000D01*
X77212000Y-31766000D02*
X77212000Y-33766000D01*
X79252000Y-53070000D02*
X79252000Y-51070000D01*
X77212000Y-51070000D02*
X77212000Y-53070000D01*
X71112000Y-49950000D02*
X70112000Y-49950000D01*
X70112000Y-51650000D02*
X71112000Y-51650000D01*
X70112000Y-54190000D02*
X71112000Y-54190000D01*
X71112000Y-52490000D02*
X70112000Y-52490000D01*
X71112000Y-55030000D02*
X70112000Y-55030000D01*
X70112000Y-56730000D02*
X71112000Y-56730000D01*
X70112000Y-59270000D02*
X71112000Y-59270000D01*
X71112000Y-57570000D02*
X70112000Y-57570000D01*
X66014000Y-39760000D02*
X67214000Y-39760000D01*
X67214000Y-41520000D02*
X66014000Y-41520000D01*
X74076000Y-39760000D02*
X75276000Y-39760000D01*
X75276000Y-41520000D02*
X74076000Y-41520000D01*
X82940000Y-32030000D02*
X82940000Y-30830000D01*
X84700000Y-30830000D02*
X84700000Y-32030000D01*
X91856000Y-33156000D02*
X93056000Y-33156000D01*
X93056000Y-34916000D02*
X91856000Y-34916000D01*
X91856000Y-31124000D02*
X93056000Y-31124000D01*
X93056000Y-32884000D02*
X91856000Y-32884000D01*
X94370000Y-32096000D02*
X94370000Y-30896000D01*
X96130000Y-30896000D02*
X96130000Y-32096000D01*
X96130000Y-34198000D02*
X96130000Y-35398000D01*
X94370000Y-35398000D02*
X94370000Y-34198000D01*
X66014000Y-42300000D02*
X67214000Y-42300000D01*
X67214000Y-44060000D02*
X66014000Y-44060000D01*
X74076000Y-42300000D02*
X75276000Y-42300000D01*
X75276000Y-44060000D02*
X74076000Y-44060000D01*
X86842000Y-31124000D02*
X88042000Y-31124000D01*
X88042000Y-32884000D02*
X86842000Y-32884000D01*
X65948000Y-44840000D02*
X67148000Y-44840000D01*
X67148000Y-46600000D02*
X65948000Y-46600000D01*
X74076000Y-44840000D02*
X75276000Y-44840000D01*
X75276000Y-46600000D02*
X74076000Y-46600000D01*
X82160000Y-45628000D02*
X82160000Y-46828000D01*
X80400000Y-46828000D02*
X80400000Y-45628000D01*
X91856000Y-42808000D02*
X93056000Y-42808000D01*
X93056000Y-44568000D02*
X91856000Y-44568000D01*
X91856000Y-44840000D02*
X93056000Y-44840000D01*
X93056000Y-46600000D02*
X91856000Y-46600000D01*
X96130000Y-45882000D02*
X96130000Y-47082000D01*
X94370000Y-47082000D02*
X94370000Y-45882000D01*
X94370000Y-43780000D02*
X94370000Y-42580000D01*
X96130000Y-42580000D02*
X96130000Y-43780000D01*
X65948000Y-47380000D02*
X67148000Y-47380000D01*
X67148000Y-49140000D02*
X65948000Y-49140000D01*
X74142000Y-47380000D02*
X75342000Y-47380000D01*
X75342000Y-49140000D02*
X74142000Y-49140000D01*
X84236000Y-44840000D02*
X85436000Y-44840000D01*
X85436000Y-46600000D02*
X84236000Y-46600000D01*
X66014000Y-49920000D02*
X67214000Y-49920000D01*
X67214000Y-51680000D02*
X66014000Y-51680000D01*
X74142000Y-49920000D02*
X75342000Y-49920000D01*
X75342000Y-51680000D02*
X74142000Y-51680000D01*
X82940000Y-51400000D02*
X82940000Y-50200000D01*
X84700000Y-50200000D02*
X84700000Y-51400000D01*
X91856000Y-50428000D02*
X93056000Y-50428000D01*
X93056000Y-52188000D02*
X91856000Y-52188000D01*
X91856000Y-52460000D02*
X93056000Y-52460000D01*
X93056000Y-54220000D02*
X91856000Y-54220000D01*
X96130000Y-53502000D02*
X96130000Y-54702000D01*
X94370000Y-54702000D02*
X94370000Y-53502000D01*
X94370000Y-51400000D02*
X94370000Y-50200000D01*
X96130000Y-50200000D02*
X96130000Y-51400000D01*
X65948000Y-52460000D02*
X67148000Y-52460000D01*
X67148000Y-54220000D02*
X65948000Y-54220000D01*
X74142000Y-52460000D02*
X75342000Y-52460000D01*
X75342000Y-54220000D02*
X74142000Y-54220000D01*
X86776000Y-50428000D02*
X87976000Y-50428000D01*
X87976000Y-52188000D02*
X86776000Y-52188000D01*
X65948000Y-55000000D02*
X67148000Y-55000000D01*
X67148000Y-56760000D02*
X65948000Y-56760000D01*
X74142000Y-55000000D02*
X75342000Y-55000000D01*
X75342000Y-56760000D02*
X74142000Y-56760000D01*
X81144000Y-64932000D02*
X81144000Y-66132000D01*
X79384000Y-66132000D02*
X79384000Y-64932000D01*
X91856000Y-64144000D02*
X93056000Y-64144000D01*
X93056000Y-65904000D02*
X91856000Y-65904000D01*
X91856000Y-62112000D02*
X93056000Y-62112000D01*
X93056000Y-63872000D02*
X91856000Y-63872000D01*
X96130000Y-65186000D02*
X96130000Y-66386000D01*
X94370000Y-66386000D02*
X94370000Y-65186000D01*
X94370000Y-63084000D02*
X94370000Y-61884000D01*
X96130000Y-61884000D02*
X96130000Y-63084000D01*
X65948000Y-57540000D02*
X67148000Y-57540000D01*
X67148000Y-59300000D02*
X65948000Y-59300000D01*
X74142000Y-57540000D02*
X75342000Y-57540000D01*
X75342000Y-59300000D02*
X74142000Y-59300000D01*
X84490000Y-64144000D02*
X85690000Y-64144000D01*
X85690000Y-65904000D02*
X84490000Y-65904000D01*
X90230000Y-39862000D02*
G75*
G02X90230000Y-37862000I0J1000000D01*
G01*
X90230000Y-37862000D02*
X90230000Y-36212000D01*
X90230000Y-36212000D02*
X79950000Y-36212000D01*
X79950000Y-36212000D02*
X79950000Y-41512000D01*
X79950000Y-41512000D02*
X90230000Y-41512000D01*
X90230000Y-41512000D02*
X90230000Y-39862000D01*
X90290000Y-33722000D02*
X79890000Y-33722000D01*
X79890000Y-33722000D02*
X79890000Y-44002000D01*
X79890000Y-44002000D02*
X90290000Y-44002000D01*
X90290000Y-44002000D02*
X90290000Y-33722000D01*
X90230000Y-59166000D02*
G75*
G02X90230000Y-57166000I0J1000000D01*
G01*
X90230000Y-57166000D02*
X90230000Y-55516000D01*
X90230000Y-55516000D02*
X79950000Y-55516000D01*
X79950000Y-55516000D02*
X79950000Y-60816000D01*
X79950000Y-60816000D02*
X90230000Y-60816000D01*
X90230000Y-60816000D02*
X90230000Y-59166000D01*
X90290000Y-53026000D02*
X79890000Y-53026000D01*
X79890000Y-53026000D02*
X79890000Y-63306000D01*
X79890000Y-63306000D02*
X90290000Y-63306000D01*
X90290000Y-63306000D02*
X90290000Y-53026000D01*
D13*
X64058800Y-59928760D02*
X64058800Y-39131240D01*
X63660020Y-39131240D02*
X63660020Y-59928760D01*
X57861200Y-59928760D02*
X57861200Y-39131240D01*
X58359040Y-39131240D02*
X58359040Y-59928760D01*
X58359040Y-49530000D02*
X57861200Y-49530000D01*
X58359040Y-57129680D02*
X57861200Y-57129680D01*
X58359040Y-54630320D02*
X57861200Y-54630320D01*
X58359040Y-52031900D02*
X57861200Y-52031900D01*
X58359040Y-47030640D02*
X57861200Y-47030640D01*
X58359040Y-44432220D02*
X57861200Y-44432220D01*
X57861200Y-39331900D02*
X58359040Y-39331900D01*
X58359040Y-59728100D02*
X57861200Y-59728100D01*
X57861200Y-41935400D02*
X58359040Y-41935400D01*
X57861200Y-59926220D02*
X64058800Y-59926220D01*
X64058800Y-39133780D02*
X57861200Y-39133780D01*
X104698800Y-59928760D02*
X104698800Y-39131240D01*
X104300020Y-39131240D02*
X104300020Y-59928760D01*
X98501200Y-59928760D02*
X98501200Y-39131240D01*
X98999040Y-39131240D02*
X98999040Y-59928760D01*
X98999040Y-49530000D02*
X98501200Y-49530000D01*
X98999040Y-57129680D02*
X98501200Y-57129680D01*
X98999040Y-54630320D02*
X98501200Y-54630320D01*
X98999040Y-52031900D02*
X98501200Y-52031900D01*
X98999040Y-47030640D02*
X98501200Y-47030640D01*
X98999040Y-44432220D02*
X98501200Y-44432220D01*
X98501200Y-39331900D02*
X98999040Y-39331900D01*
X98999040Y-59728100D02*
X98501200Y-59728100D01*
X98501200Y-41935400D02*
X98999040Y-41935400D01*
X98501200Y-59926220D02*
X104698800Y-59926220D01*
X104698800Y-39133780D02*
X98501200Y-39133780D01*
X65400000Y-81200000D02*
G75*
G03X65400000Y-81200000I-2000000J0D01*
G01*
X59400000Y-78700000D02*
X58900000Y-78700000D01*
X59400000Y-73700000D02*
X58900000Y-73700000D01*
X65400000Y-76200000D02*
G75*
G03X65400000Y-76200000I-2000000J0D01*
G01*
X65400000Y-71200000D02*
G75*
G03X65400000Y-71200000I-2000000J0D01*
G01*
X60900000Y-68700000D02*
X60900000Y-83700000D01*
X65800000Y-68700000D02*
X65800000Y-83700000D01*
X59400000Y-68700000D02*
X59400000Y-83700000D01*
X58900000Y-68700000D02*
X58900000Y-83700000D01*
X58900000Y-83700000D02*
X68700000Y-83700000D01*
X68700000Y-83700000D02*
X68700000Y-68700000D01*
X68700000Y-68700000D02*
X58900000Y-68700000D01*
X100960000Y-81200000D02*
G75*
G03X100960000Y-81200000I-2000000J0D01*
G01*
X94960000Y-78700000D02*
X94460000Y-78700000D01*
X94960000Y-73700000D02*
X94460000Y-73700000D01*
X100960000Y-76200000D02*
G75*
G03X100960000Y-76200000I-2000000J0D01*
G01*
X100960000Y-71200000D02*
G75*
G03X100960000Y-71200000I-2000000J0D01*
G01*
X96460000Y-68700000D02*
X96460000Y-83700000D01*
X101360000Y-68700000D02*
X101360000Y-83700000D01*
X94960000Y-68700000D02*
X94960000Y-83700000D01*
X94460000Y-68700000D02*
X94460000Y-83700000D01*
X94460000Y-83700000D02*
X104260000Y-83700000D01*
X104260000Y-83700000D02*
X104260000Y-68700000D01*
X104260000Y-68700000D02*
X94460000Y-68700000D01*
D12*
X90928000Y-38116000D02*
X90928000Y-40116000D01*
X92968000Y-40116000D02*
X92968000Y-38116000D01*
X77212000Y-36616000D02*
X77212000Y-38616000D01*
X79252000Y-38616000D02*
X79252000Y-36616000D01*
X90928000Y-57190000D02*
X90928000Y-59190000D01*
X92968000Y-59190000D02*
X92968000Y-57190000D01*
X77212000Y-55896000D02*
X77212000Y-57896000D01*
X79252000Y-57896000D02*
X79252000Y-55896000D01*
X82458000Y-68208000D02*
X83658000Y-68208000D01*
X83658000Y-69968000D02*
X82458000Y-69968000D01*
X86014000Y-68208000D02*
X87214000Y-68208000D01*
X87214000Y-69968000D02*
X86014000Y-69968000D01*
X87722000Y-83684000D02*
X86522000Y-83684000D01*
X86522000Y-81924000D02*
X87722000Y-81924000D01*
X81626000Y-83684000D02*
X80426000Y-83684000D01*
X80426000Y-81924000D02*
X81626000Y-81924000D01*
D13*
X77724000Y-73914000D02*
X77724000Y-70485000D01*
X87376000Y-73914000D02*
X87376000Y-70485000D01*
X77216000Y-75057000D02*
X87884000Y-75057000D01*
X80772000Y-74041000D02*
X80772000Y-75311000D01*
X84328000Y-74041000D02*
X84328000Y-75311000D01*
X87884000Y-73914000D02*
X77216000Y-73914000D01*
X77216000Y-70485000D02*
X87884000Y-70485000D01*
X87884000Y-75311000D02*
X87884000Y-70485000D01*
X77216000Y-75311000D02*
X77216000Y-70485000D01*
X77216000Y-75311000D02*
X87884000Y-75311000D01*
X87376000Y-78105000D02*
X87376000Y-81534000D01*
X77724000Y-78105000D02*
X77724000Y-81534000D01*
X87884000Y-76962000D02*
X77216000Y-76962000D01*
X84328000Y-77978000D02*
X84328000Y-76708000D01*
X80772000Y-77978000D02*
X80772000Y-76708000D01*
X77216000Y-78105000D02*
X87884000Y-78105000D01*
X87884000Y-81534000D02*
X77216000Y-81534000D01*
X77216000Y-76708000D02*
X77216000Y-81534000D01*
X87884000Y-76708000D02*
X87884000Y-81534000D01*
X87884000Y-76708000D02*
X77216000Y-76708000D01*
X70445334Y-39497143D02*
X70397715Y-39544762D01*
X70254858Y-39592381D01*
X70159620Y-39592381D01*
X70016762Y-39544762D01*
X69921524Y-39449524D01*
X69873905Y-39354286D01*
X69826286Y-39163810D01*
X69826286Y-39020952D01*
X69873905Y-38830476D01*
X69921524Y-38735238D01*
X70016762Y-38640000D01*
X70159620Y-38592381D01*
X70254858Y-38592381D01*
X70397715Y-38640000D01*
X70445334Y-38687619D01*
X71397715Y-39592381D02*
X70826286Y-39592381D01*
X71112000Y-39592381D02*
X71112000Y-38592381D01*
X71016762Y-38735238D01*
X70921524Y-38830476D01*
X70826286Y-38878095D01*
X74271143Y-73699666D02*
X74318762Y-73747285D01*
X74366381Y-73890142D01*
X74366381Y-73985380D01*
X74318762Y-74128238D01*
X74223524Y-74223476D01*
X74128286Y-74271095D01*
X73937810Y-74318714D01*
X73794952Y-74318714D01*
X73604476Y-74271095D01*
X73509238Y-74223476D01*
X73414000Y-74128238D01*
X73366381Y-73985380D01*
X73366381Y-73890142D01*
X73414000Y-73747285D01*
X73461619Y-73699666D01*
X73366381Y-72794904D02*
X73366381Y-73271095D01*
X73842571Y-73318714D01*
X73794952Y-73271095D01*
X73747333Y-73175857D01*
X73747333Y-72937761D01*
X73794952Y-72842523D01*
X73842571Y-72794904D01*
X73937810Y-72747285D01*
X74175905Y-72747285D01*
X74271143Y-72794904D01*
X74318762Y-72842523D01*
X74366381Y-72937761D01*
X74366381Y-73175857D01*
X74318762Y-73271095D01*
X74271143Y-73318714D01*
X90003334Y-75287143D02*
X89955715Y-75334762D01*
X89812858Y-75382381D01*
X89717620Y-75382381D01*
X89574762Y-75334762D01*
X89479524Y-75239524D01*
X89431905Y-75144286D01*
X89384286Y-74953810D01*
X89384286Y-74810952D01*
X89431905Y-74620476D01*
X89479524Y-74525238D01*
X89574762Y-74430000D01*
X89717620Y-74382381D01*
X89812858Y-74382381D01*
X89955715Y-74430000D01*
X90003334Y-74477619D01*
X90860477Y-74382381D02*
X90670000Y-74382381D01*
X90574762Y-74430000D01*
X90527143Y-74477619D01*
X90431905Y-74620476D01*
X90384286Y-74810952D01*
X90384286Y-75191905D01*
X90431905Y-75287143D01*
X90479524Y-75334762D01*
X90574762Y-75382381D01*
X90765239Y-75382381D01*
X90860477Y-75334762D01*
X90908096Y-75287143D01*
X90955715Y-75191905D01*
X90955715Y-74953810D01*
X90908096Y-74858571D01*
X90860477Y-74810952D01*
X90765239Y-74763333D01*
X90574762Y-74763333D01*
X90479524Y-74810952D01*
X90431905Y-74858571D01*
X90384286Y-74953810D01*
X94321334Y-39449143D02*
X94273715Y-39496762D01*
X94130858Y-39544381D01*
X94035620Y-39544381D01*
X93892762Y-39496762D01*
X93797524Y-39401524D01*
X93749905Y-39306286D01*
X93702286Y-39115810D01*
X93702286Y-38972952D01*
X93749905Y-38782476D01*
X93797524Y-38687238D01*
X93892762Y-38592000D01*
X94035620Y-38544381D01*
X94130858Y-38544381D01*
X94273715Y-38592000D01*
X94321334Y-38639619D01*
X94892762Y-38972952D02*
X94797524Y-38925333D01*
X94749905Y-38877714D01*
X94702286Y-38782476D01*
X94702286Y-38734857D01*
X94749905Y-38639619D01*
X94797524Y-38592000D01*
X94892762Y-38544381D01*
X95083239Y-38544381D01*
X95178477Y-38592000D01*
X95226096Y-38639619D01*
X95273715Y-38734857D01*
X95273715Y-38782476D01*
X95226096Y-38877714D01*
X95178477Y-38925333D01*
X95083239Y-38972952D01*
X94892762Y-38972952D01*
X94797524Y-39020571D01*
X94749905Y-39068190D01*
X94702286Y-39163429D01*
X94702286Y-39353905D01*
X94749905Y-39449143D01*
X94797524Y-39496762D01*
X94892762Y-39544381D01*
X95083239Y-39544381D01*
X95178477Y-39496762D01*
X95226096Y-39449143D01*
X95273715Y-39353905D01*
X95273715Y-39163429D01*
X95226096Y-39068190D01*
X95178477Y-39020571D01*
X95083239Y-38972952D01*
X93972143Y-58523143D02*
X93924524Y-58570762D01*
X93781667Y-58618381D01*
X93686429Y-58618381D01*
X93543571Y-58570762D01*
X93448333Y-58475524D01*
X93400714Y-58380286D01*
X93353095Y-58189810D01*
X93353095Y-58046952D01*
X93400714Y-57856476D01*
X93448333Y-57761238D01*
X93543571Y-57666000D01*
X93686429Y-57618381D01*
X93781667Y-57618381D01*
X93924524Y-57666000D01*
X93972143Y-57713619D01*
X94924524Y-58618381D02*
X94353095Y-58618381D01*
X94638809Y-58618381D02*
X94638809Y-57618381D01*
X94543571Y-57761238D01*
X94448333Y-57856476D01*
X94353095Y-57904095D01*
X95543571Y-57618381D02*
X95638810Y-57618381D01*
X95734048Y-57666000D01*
X95781667Y-57713619D01*
X95829286Y-57808857D01*
X95876905Y-57999333D01*
X95876905Y-58237429D01*
X95829286Y-58427905D01*
X95781667Y-58523143D01*
X95734048Y-58570762D01*
X95638810Y-58618381D01*
X95543571Y-58618381D01*
X95448333Y-58570762D01*
X95400714Y-58523143D01*
X95353095Y-58427905D01*
X95305476Y-58237429D01*
X95305476Y-57999333D01*
X95353095Y-57808857D01*
X95400714Y-57713619D01*
X95448333Y-57666000D01*
X95543571Y-57618381D01*
X74144143Y-79509857D02*
X74191762Y-79557476D01*
X74239381Y-79700333D01*
X74239381Y-79795571D01*
X74191762Y-79938429D01*
X74096524Y-80033667D01*
X74001286Y-80081286D01*
X73810810Y-80128905D01*
X73667952Y-80128905D01*
X73477476Y-80081286D01*
X73382238Y-80033667D01*
X73287000Y-79938429D01*
X73239381Y-79795571D01*
X73239381Y-79700333D01*
X73287000Y-79557476D01*
X73334619Y-79509857D01*
X74239381Y-78557476D02*
X74239381Y-79128905D01*
X74239381Y-78843191D02*
X73239381Y-78843191D01*
X73382238Y-78938429D01*
X73477476Y-79033667D01*
X73525095Y-79128905D01*
X74239381Y-77605095D02*
X74239381Y-78176524D01*
X74239381Y-77890810D02*
X73239381Y-77890810D01*
X73382238Y-77986048D01*
X73477476Y-78081286D01*
X73525095Y-78176524D01*
X89527143Y-77319143D02*
X89479524Y-77366762D01*
X89336667Y-77414381D01*
X89241429Y-77414381D01*
X89098571Y-77366762D01*
X89003333Y-77271524D01*
X88955714Y-77176286D01*
X88908095Y-76985810D01*
X88908095Y-76842952D01*
X88955714Y-76652476D01*
X89003333Y-76557238D01*
X89098571Y-76462000D01*
X89241429Y-76414381D01*
X89336667Y-76414381D01*
X89479524Y-76462000D01*
X89527143Y-76509619D01*
X90479524Y-77414381D02*
X89908095Y-77414381D01*
X90193809Y-77414381D02*
X90193809Y-76414381D01*
X90098571Y-76557238D01*
X90003333Y-76652476D01*
X89908095Y-76700095D01*
X90860476Y-76509619D02*
X90908095Y-76462000D01*
X91003333Y-76414381D01*
X91241429Y-76414381D01*
X91336667Y-76462000D01*
X91384286Y-76509619D01*
X91431905Y-76604857D01*
X91431905Y-76700095D01*
X91384286Y-76842952D01*
X90812857Y-77414381D01*
X91431905Y-77414381D01*
X77589143Y-30075143D02*
X77541524Y-30122762D01*
X77398667Y-30170381D01*
X77303429Y-30170381D01*
X77160571Y-30122762D01*
X77065333Y-30027524D01*
X77017714Y-29932286D01*
X76970095Y-29741810D01*
X76970095Y-29598952D01*
X77017714Y-29408476D01*
X77065333Y-29313238D01*
X77160571Y-29218000D01*
X77303429Y-29170381D01*
X77398667Y-29170381D01*
X77541524Y-29218000D01*
X77589143Y-29265619D01*
X78541524Y-30170381D02*
X77970095Y-30170381D01*
X78255809Y-30170381D02*
X78255809Y-29170381D01*
X78160571Y-29313238D01*
X78065333Y-29408476D01*
X77970095Y-29456095D01*
X79398667Y-29503714D02*
X79398667Y-30170381D01*
X79160571Y-29122762D02*
X78922476Y-29837048D01*
X79541524Y-29837048D01*
X77589143Y-49379143D02*
X77541524Y-49426762D01*
X77398667Y-49474381D01*
X77303429Y-49474381D01*
X77160571Y-49426762D01*
X77065333Y-49331524D01*
X77017714Y-49236286D01*
X76970095Y-49045810D01*
X76970095Y-48902952D01*
X77017714Y-48712476D01*
X77065333Y-48617238D01*
X77160571Y-48522000D01*
X77303429Y-48474381D01*
X77398667Y-48474381D01*
X77541524Y-48522000D01*
X77589143Y-48569619D01*
X78541524Y-49474381D02*
X77970095Y-49474381D01*
X78255809Y-49474381D02*
X78255809Y-48474381D01*
X78160571Y-48617238D01*
X78065333Y-48712476D01*
X77970095Y-48760095D01*
X79398667Y-48474381D02*
X79208190Y-48474381D01*
X79112952Y-48522000D01*
X79065333Y-48569619D01*
X78970095Y-48712476D01*
X78922476Y-48902952D01*
X78922476Y-49283905D01*
X78970095Y-49379143D01*
X79017714Y-49426762D01*
X79112952Y-49474381D01*
X79303429Y-49474381D01*
X79398667Y-49426762D01*
X79446286Y-49379143D01*
X79493905Y-49283905D01*
X79493905Y-49045810D01*
X79446286Y-48950571D01*
X79398667Y-48902952D01*
X79303429Y-48855333D01*
X79112952Y-48855333D01*
X79017714Y-48902952D01*
X78970095Y-48950571D01*
X78922476Y-49045810D01*
X66447334Y-39568381D02*
X66114000Y-39092190D01*
X65875905Y-39568381D02*
X65875905Y-38568381D01*
X66256858Y-38568381D01*
X66352096Y-38616000D01*
X66399715Y-38663619D01*
X66447334Y-38758857D01*
X66447334Y-38901714D01*
X66399715Y-38996952D01*
X66352096Y-39044571D01*
X66256858Y-39092190D01*
X65875905Y-39092190D01*
X67399715Y-39568381D02*
X66828286Y-39568381D01*
X67114000Y-39568381D02*
X67114000Y-38568381D01*
X67018762Y-38711238D01*
X66923524Y-38806476D01*
X66828286Y-38854095D01*
X74509334Y-39568381D02*
X74176000Y-39092190D01*
X73937905Y-39568381D02*
X73937905Y-38568381D01*
X74318858Y-38568381D01*
X74414096Y-38616000D01*
X74461715Y-38663619D01*
X74509334Y-38758857D01*
X74509334Y-38901714D01*
X74461715Y-38996952D01*
X74414096Y-39044571D01*
X74318858Y-39092190D01*
X73937905Y-39092190D01*
X74890286Y-38663619D02*
X74937905Y-38616000D01*
X75033143Y-38568381D01*
X75271239Y-38568381D01*
X75366477Y-38616000D01*
X75414096Y-38663619D01*
X75461715Y-38758857D01*
X75461715Y-38854095D01*
X75414096Y-38996952D01*
X74842667Y-39568381D01*
X75461715Y-39568381D01*
X82748381Y-31662666D02*
X82272190Y-31996000D01*
X82748381Y-32234095D02*
X81748381Y-32234095D01*
X81748381Y-31853142D01*
X81796000Y-31757904D01*
X81843619Y-31710285D01*
X81938857Y-31662666D01*
X82081714Y-31662666D01*
X82176952Y-31710285D01*
X82224571Y-31757904D01*
X82272190Y-31853142D01*
X82272190Y-32234095D01*
X81748381Y-31329333D02*
X81748381Y-30710285D01*
X82129333Y-31043619D01*
X82129333Y-30900761D01*
X82176952Y-30805523D01*
X82224571Y-30757904D01*
X82319810Y-30710285D01*
X82557905Y-30710285D01*
X82653143Y-30757904D01*
X82700762Y-30805523D01*
X82748381Y-30900761D01*
X82748381Y-31186476D01*
X82700762Y-31281714D01*
X82653143Y-31329333D01*
X92289334Y-36138381D02*
X91956000Y-35662190D01*
X91717905Y-36138381D02*
X91717905Y-35138381D01*
X92098858Y-35138381D01*
X92194096Y-35186000D01*
X92241715Y-35233619D01*
X92289334Y-35328857D01*
X92289334Y-35471714D01*
X92241715Y-35566952D01*
X92194096Y-35614571D01*
X92098858Y-35662190D01*
X91717905Y-35662190D01*
X93146477Y-35471714D02*
X93146477Y-36138381D01*
X92908381Y-35090762D02*
X92670286Y-35805048D01*
X93289334Y-35805048D01*
X92289334Y-30932381D02*
X91956000Y-30456190D01*
X91717905Y-30932381D02*
X91717905Y-29932381D01*
X92098858Y-29932381D01*
X92194096Y-29980000D01*
X92241715Y-30027619D01*
X92289334Y-30122857D01*
X92289334Y-30265714D01*
X92241715Y-30360952D01*
X92194096Y-30408571D01*
X92098858Y-30456190D01*
X91717905Y-30456190D01*
X93194096Y-29932381D02*
X92717905Y-29932381D01*
X92670286Y-30408571D01*
X92717905Y-30360952D01*
X92813143Y-30313333D01*
X93051239Y-30313333D01*
X93146477Y-30360952D01*
X93194096Y-30408571D01*
X93241715Y-30503810D01*
X93241715Y-30741905D01*
X93194096Y-30837143D01*
X93146477Y-30884762D01*
X93051239Y-30932381D01*
X92813143Y-30932381D01*
X92717905Y-30884762D01*
X92670286Y-30837143D01*
X95083334Y-29408381D02*
X94750000Y-28932190D01*
X94511905Y-29408381D02*
X94511905Y-28408381D01*
X94892858Y-28408381D01*
X94988096Y-28456000D01*
X95035715Y-28503619D01*
X95083334Y-28598857D01*
X95083334Y-28741714D01*
X95035715Y-28836952D01*
X94988096Y-28884571D01*
X94892858Y-28932190D01*
X94511905Y-28932190D01*
X95940477Y-28408381D02*
X95750000Y-28408381D01*
X95654762Y-28456000D01*
X95607143Y-28503619D01*
X95511905Y-28646476D01*
X95464286Y-28836952D01*
X95464286Y-29217905D01*
X95511905Y-29313143D01*
X95559524Y-29360762D01*
X95654762Y-29408381D01*
X95845239Y-29408381D01*
X95940477Y-29360762D01*
X95988096Y-29313143D01*
X96035715Y-29217905D01*
X96035715Y-28979810D01*
X95988096Y-28884571D01*
X95940477Y-28836952D01*
X95845239Y-28789333D01*
X95654762Y-28789333D01*
X95559524Y-28836952D01*
X95511905Y-28884571D01*
X95464286Y-28979810D01*
X96861334Y-36266381D02*
X96528000Y-35790190D01*
X96289905Y-36266381D02*
X96289905Y-35266381D01*
X96670858Y-35266381D01*
X96766096Y-35314000D01*
X96813715Y-35361619D01*
X96861334Y-35456857D01*
X96861334Y-35599714D01*
X96813715Y-35694952D01*
X96766096Y-35742571D01*
X96670858Y-35790190D01*
X96289905Y-35790190D01*
X97194667Y-35266381D02*
X97861334Y-35266381D01*
X97432762Y-36266381D01*
X86733143Y-30932381D02*
X86399809Y-30456190D01*
X86161714Y-30932381D02*
X86161714Y-29932381D01*
X86542667Y-29932381D01*
X86637905Y-29980000D01*
X86685524Y-30027619D01*
X86733143Y-30122857D01*
X86733143Y-30265714D01*
X86685524Y-30360952D01*
X86637905Y-30408571D01*
X86542667Y-30456190D01*
X86161714Y-30456190D01*
X87685524Y-30932381D02*
X87114095Y-30932381D01*
X87399809Y-30932381D02*
X87399809Y-29932381D01*
X87304571Y-30075238D01*
X87209333Y-30170476D01*
X87114095Y-30218095D01*
X88304571Y-29932381D02*
X88399810Y-29932381D01*
X88495048Y-29980000D01*
X88542667Y-30027619D01*
X88590286Y-30122857D01*
X88637905Y-30313333D01*
X88637905Y-30551429D01*
X88590286Y-30741905D01*
X88542667Y-30837143D01*
X88495048Y-30884762D01*
X88399810Y-30932381D01*
X88304571Y-30932381D01*
X88209333Y-30884762D01*
X88161714Y-30837143D01*
X88114095Y-30741905D01*
X88066476Y-30551429D01*
X88066476Y-30313333D01*
X88114095Y-30122857D01*
X88161714Y-30027619D01*
X88209333Y-29980000D01*
X88304571Y-29932381D01*
X78097143Y-46680381D02*
X77763809Y-46204190D01*
X77525714Y-46680381D02*
X77525714Y-45680381D01*
X77906667Y-45680381D01*
X78001905Y-45728000D01*
X78049524Y-45775619D01*
X78097143Y-45870857D01*
X78097143Y-46013714D01*
X78049524Y-46108952D01*
X78001905Y-46156571D01*
X77906667Y-46204190D01*
X77525714Y-46204190D01*
X79049524Y-46680381D02*
X78478095Y-46680381D01*
X78763809Y-46680381D02*
X78763809Y-45680381D01*
X78668571Y-45823238D01*
X78573333Y-45918476D01*
X78478095Y-45966095D01*
X79382857Y-45680381D02*
X80001905Y-45680381D01*
X79668571Y-46061333D01*
X79811429Y-46061333D01*
X79906667Y-46108952D01*
X79954286Y-46156571D01*
X80001905Y-46251810D01*
X80001905Y-46489905D01*
X79954286Y-46585143D01*
X79906667Y-46632762D01*
X79811429Y-46680381D01*
X79525714Y-46680381D01*
X79430476Y-46632762D01*
X79382857Y-46585143D01*
X91686143Y-42616381D02*
X91352809Y-42140190D01*
X91114714Y-42616381D02*
X91114714Y-41616381D01*
X91495667Y-41616381D01*
X91590905Y-41664000D01*
X91638524Y-41711619D01*
X91686143Y-41806857D01*
X91686143Y-41949714D01*
X91638524Y-42044952D01*
X91590905Y-42092571D01*
X91495667Y-42140190D01*
X91114714Y-42140190D01*
X92638524Y-42616381D02*
X92067095Y-42616381D01*
X92352809Y-42616381D02*
X92352809Y-41616381D01*
X92257571Y-41759238D01*
X92162333Y-41854476D01*
X92067095Y-41902095D01*
X93495667Y-41949714D02*
X93495667Y-42616381D01*
X93257571Y-41568762D02*
X93019476Y-42283048D01*
X93638524Y-42283048D01*
X91813143Y-47822381D02*
X91479809Y-47346190D01*
X91241714Y-47822381D02*
X91241714Y-46822381D01*
X91622667Y-46822381D01*
X91717905Y-46870000D01*
X91765524Y-46917619D01*
X91813143Y-47012857D01*
X91813143Y-47155714D01*
X91765524Y-47250952D01*
X91717905Y-47298571D01*
X91622667Y-47346190D01*
X91241714Y-47346190D01*
X92765524Y-47822381D02*
X92194095Y-47822381D01*
X92479809Y-47822381D02*
X92479809Y-46822381D01*
X92384571Y-46965238D01*
X92289333Y-47060476D01*
X92194095Y-47108095D01*
X93670286Y-46822381D02*
X93194095Y-46822381D01*
X93146476Y-47298571D01*
X93194095Y-47250952D01*
X93289333Y-47203333D01*
X93527429Y-47203333D01*
X93622667Y-47250952D01*
X93670286Y-47298571D01*
X93717905Y-47393810D01*
X93717905Y-47631905D01*
X93670286Y-47727143D01*
X93622667Y-47774762D01*
X93527429Y-47822381D01*
X93289333Y-47822381D01*
X93194095Y-47774762D01*
X93146476Y-47727143D01*
X97353381Y-46870857D02*
X96877190Y-47204191D01*
X97353381Y-47442286D02*
X96353381Y-47442286D01*
X96353381Y-47061333D01*
X96401000Y-46966095D01*
X96448619Y-46918476D01*
X96543857Y-46870857D01*
X96686714Y-46870857D01*
X96781952Y-46918476D01*
X96829571Y-46966095D01*
X96877190Y-47061333D01*
X96877190Y-47442286D01*
X97353381Y-45918476D02*
X97353381Y-46489905D01*
X97353381Y-46204191D02*
X96353381Y-46204191D01*
X96496238Y-46299429D01*
X96591476Y-46394667D01*
X96639095Y-46489905D01*
X96353381Y-45061333D02*
X96353381Y-45251810D01*
X96401000Y-45347048D01*
X96448619Y-45394667D01*
X96591476Y-45489905D01*
X96781952Y-45537524D01*
X97162905Y-45537524D01*
X97258143Y-45489905D01*
X97305762Y-45442286D01*
X97353381Y-45347048D01*
X97353381Y-45156571D01*
X97305762Y-45061333D01*
X97258143Y-45013714D01*
X97162905Y-44966095D01*
X96924810Y-44966095D01*
X96829571Y-45013714D01*
X96781952Y-45061333D01*
X96734333Y-45156571D01*
X96734333Y-45347048D01*
X96781952Y-45442286D01*
X96829571Y-45489905D01*
X96924810Y-45537524D01*
X97352381Y-43822857D02*
X96876190Y-44156191D01*
X97352381Y-44394286D02*
X96352381Y-44394286D01*
X96352381Y-44013333D01*
X96400000Y-43918095D01*
X96447619Y-43870476D01*
X96542857Y-43822857D01*
X96685714Y-43822857D01*
X96780952Y-43870476D01*
X96828571Y-43918095D01*
X96876190Y-44013333D01*
X96876190Y-44394286D01*
X97352381Y-42870476D02*
X97352381Y-43441905D01*
X97352381Y-43156191D02*
X96352381Y-43156191D01*
X96495238Y-43251429D01*
X96590476Y-43346667D01*
X96638095Y-43441905D01*
X96352381Y-42537143D02*
X96352381Y-41870476D01*
X97352381Y-42299048D01*
X84193143Y-47822381D02*
X83859809Y-47346190D01*
X83621714Y-47822381D02*
X83621714Y-46822381D01*
X84002667Y-46822381D01*
X84097905Y-46870000D01*
X84145524Y-46917619D01*
X84193143Y-47012857D01*
X84193143Y-47155714D01*
X84145524Y-47250952D01*
X84097905Y-47298571D01*
X84002667Y-47346190D01*
X83621714Y-47346190D01*
X84574095Y-46917619D02*
X84621714Y-46870000D01*
X84716952Y-46822381D01*
X84955048Y-46822381D01*
X85050286Y-46870000D01*
X85097905Y-46917619D01*
X85145524Y-47012857D01*
X85145524Y-47108095D01*
X85097905Y-47250952D01*
X84526476Y-47822381D01*
X85145524Y-47822381D01*
X85764571Y-46822381D02*
X85859810Y-46822381D01*
X85955048Y-46870000D01*
X86002667Y-46917619D01*
X86050286Y-47012857D01*
X86097905Y-47203333D01*
X86097905Y-47441429D01*
X86050286Y-47631905D01*
X86002667Y-47727143D01*
X85955048Y-47774762D01*
X85859810Y-47822381D01*
X85764571Y-47822381D01*
X85669333Y-47774762D01*
X85621714Y-47727143D01*
X85574095Y-47631905D01*
X85526476Y-47441429D01*
X85526476Y-47203333D01*
X85574095Y-47012857D01*
X85621714Y-46917619D01*
X85669333Y-46870000D01*
X85764571Y-46822381D01*
X82748381Y-51442857D02*
X82272190Y-51776191D01*
X82748381Y-52014286D02*
X81748381Y-52014286D01*
X81748381Y-51633333D01*
X81796000Y-51538095D01*
X81843619Y-51490476D01*
X81938857Y-51442857D01*
X82081714Y-51442857D01*
X82176952Y-51490476D01*
X82224571Y-51538095D01*
X82272190Y-51633333D01*
X82272190Y-52014286D01*
X81843619Y-51061905D02*
X81796000Y-51014286D01*
X81748381Y-50919048D01*
X81748381Y-50680952D01*
X81796000Y-50585714D01*
X81843619Y-50538095D01*
X81938857Y-50490476D01*
X82034095Y-50490476D01*
X82176952Y-50538095D01*
X82748381Y-51109524D01*
X82748381Y-50490476D01*
X81748381Y-50157143D02*
X81748381Y-49538095D01*
X82129333Y-49871429D01*
X82129333Y-49728571D01*
X82176952Y-49633333D01*
X82224571Y-49585714D01*
X82319810Y-49538095D01*
X82557905Y-49538095D01*
X82653143Y-49585714D01*
X82700762Y-49633333D01*
X82748381Y-49728571D01*
X82748381Y-50014286D01*
X82700762Y-50109524D01*
X82653143Y-50157143D01*
X91813143Y-50109381D02*
X91479809Y-49633190D01*
X91241714Y-50109381D02*
X91241714Y-49109381D01*
X91622667Y-49109381D01*
X91717905Y-49157000D01*
X91765524Y-49204619D01*
X91813143Y-49299857D01*
X91813143Y-49442714D01*
X91765524Y-49537952D01*
X91717905Y-49585571D01*
X91622667Y-49633190D01*
X91241714Y-49633190D01*
X92194095Y-49204619D02*
X92241714Y-49157000D01*
X92336952Y-49109381D01*
X92575048Y-49109381D01*
X92670286Y-49157000D01*
X92717905Y-49204619D01*
X92765524Y-49299857D01*
X92765524Y-49395095D01*
X92717905Y-49537952D01*
X92146476Y-50109381D01*
X92765524Y-50109381D01*
X93622667Y-49442714D02*
X93622667Y-50109381D01*
X93384571Y-49061762D02*
X93146476Y-49776048D01*
X93765524Y-49776048D01*
X91813143Y-55442381D02*
X91479809Y-54966190D01*
X91241714Y-55442381D02*
X91241714Y-54442381D01*
X91622667Y-54442381D01*
X91717905Y-54490000D01*
X91765524Y-54537619D01*
X91813143Y-54632857D01*
X91813143Y-54775714D01*
X91765524Y-54870952D01*
X91717905Y-54918571D01*
X91622667Y-54966190D01*
X91241714Y-54966190D01*
X92194095Y-54537619D02*
X92241714Y-54490000D01*
X92336952Y-54442381D01*
X92575048Y-54442381D01*
X92670286Y-54490000D01*
X92717905Y-54537619D01*
X92765524Y-54632857D01*
X92765524Y-54728095D01*
X92717905Y-54870952D01*
X92146476Y-55442381D01*
X92765524Y-55442381D01*
X93670286Y-54442381D02*
X93194095Y-54442381D01*
X93146476Y-54918571D01*
X93194095Y-54870952D01*
X93289333Y-54823333D01*
X93527429Y-54823333D01*
X93622667Y-54870952D01*
X93670286Y-54918571D01*
X93717905Y-55013810D01*
X93717905Y-55251905D01*
X93670286Y-55347143D01*
X93622667Y-55394762D01*
X93527429Y-55442381D01*
X93289333Y-55442381D01*
X93194095Y-55394762D01*
X93146476Y-55347143D01*
X97353381Y-54744857D02*
X96877190Y-55078191D01*
X97353381Y-55316286D02*
X96353381Y-55316286D01*
X96353381Y-54935333D01*
X96401000Y-54840095D01*
X96448619Y-54792476D01*
X96543857Y-54744857D01*
X96686714Y-54744857D01*
X96781952Y-54792476D01*
X96829571Y-54840095D01*
X96877190Y-54935333D01*
X96877190Y-55316286D01*
X96448619Y-54363905D02*
X96401000Y-54316286D01*
X96353381Y-54221048D01*
X96353381Y-53982952D01*
X96401000Y-53887714D01*
X96448619Y-53840095D01*
X96543857Y-53792476D01*
X96639095Y-53792476D01*
X96781952Y-53840095D01*
X97353381Y-54411524D01*
X97353381Y-53792476D01*
X96353381Y-52935333D02*
X96353381Y-53125810D01*
X96401000Y-53221048D01*
X96448619Y-53268667D01*
X96591476Y-53363905D01*
X96781952Y-53411524D01*
X97162905Y-53411524D01*
X97258143Y-53363905D01*
X97305762Y-53316286D01*
X97353381Y-53221048D01*
X97353381Y-53030571D01*
X97305762Y-52935333D01*
X97258143Y-52887714D01*
X97162905Y-52840095D01*
X96924810Y-52840095D01*
X96829571Y-52887714D01*
X96781952Y-52935333D01*
X96734333Y-53030571D01*
X96734333Y-53221048D01*
X96781952Y-53316286D01*
X96829571Y-53363905D01*
X96924810Y-53411524D01*
X97352381Y-51442857D02*
X96876190Y-51776191D01*
X97352381Y-52014286D02*
X96352381Y-52014286D01*
X96352381Y-51633333D01*
X96400000Y-51538095D01*
X96447619Y-51490476D01*
X96542857Y-51442857D01*
X96685714Y-51442857D01*
X96780952Y-51490476D01*
X96828571Y-51538095D01*
X96876190Y-51633333D01*
X96876190Y-52014286D01*
X96447619Y-51061905D02*
X96400000Y-51014286D01*
X96352381Y-50919048D01*
X96352381Y-50680952D01*
X96400000Y-50585714D01*
X96447619Y-50538095D01*
X96542857Y-50490476D01*
X96638095Y-50490476D01*
X96780952Y-50538095D01*
X97352381Y-51109524D01*
X97352381Y-50490476D01*
X96352381Y-50157143D02*
X96352381Y-49490476D01*
X97352381Y-49919048D01*
X86733143Y-50236381D02*
X86399809Y-49760190D01*
X86161714Y-50236381D02*
X86161714Y-49236381D01*
X86542667Y-49236381D01*
X86637905Y-49284000D01*
X86685524Y-49331619D01*
X86733143Y-49426857D01*
X86733143Y-49569714D01*
X86685524Y-49664952D01*
X86637905Y-49712571D01*
X86542667Y-49760190D01*
X86161714Y-49760190D01*
X87066476Y-49236381D02*
X87685524Y-49236381D01*
X87352190Y-49617333D01*
X87495048Y-49617333D01*
X87590286Y-49664952D01*
X87637905Y-49712571D01*
X87685524Y-49807810D01*
X87685524Y-50045905D01*
X87637905Y-50141143D01*
X87590286Y-50188762D01*
X87495048Y-50236381D01*
X87209333Y-50236381D01*
X87114095Y-50188762D01*
X87066476Y-50141143D01*
X88304571Y-49236381D02*
X88399810Y-49236381D01*
X88495048Y-49284000D01*
X88542667Y-49331619D01*
X88590286Y-49426857D01*
X88637905Y-49617333D01*
X88637905Y-49855429D01*
X88590286Y-50045905D01*
X88542667Y-50141143D01*
X88495048Y-50188762D01*
X88399810Y-50236381D01*
X88304571Y-50236381D01*
X88209333Y-50188762D01*
X88161714Y-50141143D01*
X88114095Y-50045905D01*
X88066476Y-49855429D01*
X88066476Y-49617333D01*
X88114095Y-49426857D01*
X88161714Y-49331619D01*
X88209333Y-49284000D01*
X88304571Y-49236381D01*
X79192381Y-66174857D02*
X78716190Y-66508191D01*
X79192381Y-66746286D02*
X78192381Y-66746286D01*
X78192381Y-66365333D01*
X78240000Y-66270095D01*
X78287619Y-66222476D01*
X78382857Y-66174857D01*
X78525714Y-66174857D01*
X78620952Y-66222476D01*
X78668571Y-66270095D01*
X78716190Y-66365333D01*
X78716190Y-66746286D01*
X78192381Y-65841524D02*
X78192381Y-65222476D01*
X78573333Y-65555810D01*
X78573333Y-65412952D01*
X78620952Y-65317714D01*
X78668571Y-65270095D01*
X78763810Y-65222476D01*
X79001905Y-65222476D01*
X79097143Y-65270095D01*
X79144762Y-65317714D01*
X79192381Y-65412952D01*
X79192381Y-65698667D01*
X79144762Y-65793905D01*
X79097143Y-65841524D01*
X78192381Y-64889143D02*
X78192381Y-64270095D01*
X78573333Y-64603429D01*
X78573333Y-64460571D01*
X78620952Y-64365333D01*
X78668571Y-64317714D01*
X78763810Y-64270095D01*
X79001905Y-64270095D01*
X79097143Y-64317714D01*
X79144762Y-64365333D01*
X79192381Y-64460571D01*
X79192381Y-64746286D01*
X79144762Y-64841524D01*
X79097143Y-64889143D01*
X91813143Y-67126381D02*
X91479809Y-66650190D01*
X91241714Y-67126381D02*
X91241714Y-66126381D01*
X91622667Y-66126381D01*
X91717905Y-66174000D01*
X91765524Y-66221619D01*
X91813143Y-66316857D01*
X91813143Y-66459714D01*
X91765524Y-66554952D01*
X91717905Y-66602571D01*
X91622667Y-66650190D01*
X91241714Y-66650190D01*
X92146476Y-66126381D02*
X92765524Y-66126381D01*
X92432190Y-66507333D01*
X92575048Y-66507333D01*
X92670286Y-66554952D01*
X92717905Y-66602571D01*
X92765524Y-66697810D01*
X92765524Y-66935905D01*
X92717905Y-67031143D01*
X92670286Y-67078762D01*
X92575048Y-67126381D01*
X92289333Y-67126381D01*
X92194095Y-67078762D01*
X92146476Y-67031143D01*
X93622667Y-66459714D02*
X93622667Y-67126381D01*
X93384571Y-66078762D02*
X93146476Y-66793048D01*
X93765524Y-66793048D01*
X91813143Y-61920381D02*
X91479809Y-61444190D01*
X91241714Y-61920381D02*
X91241714Y-60920381D01*
X91622667Y-60920381D01*
X91717905Y-60968000D01*
X91765524Y-61015619D01*
X91813143Y-61110857D01*
X91813143Y-61253714D01*
X91765524Y-61348952D01*
X91717905Y-61396571D01*
X91622667Y-61444190D01*
X91241714Y-61444190D01*
X92146476Y-60920381D02*
X92765524Y-60920381D01*
X92432190Y-61301333D01*
X92575048Y-61301333D01*
X92670286Y-61348952D01*
X92717905Y-61396571D01*
X92765524Y-61491810D01*
X92765524Y-61729905D01*
X92717905Y-61825143D01*
X92670286Y-61872762D01*
X92575048Y-61920381D01*
X92289333Y-61920381D01*
X92194095Y-61872762D01*
X92146476Y-61825143D01*
X93670286Y-60920381D02*
X93194095Y-60920381D01*
X93146476Y-61396571D01*
X93194095Y-61348952D01*
X93289333Y-61301333D01*
X93527429Y-61301333D01*
X93622667Y-61348952D01*
X93670286Y-61396571D01*
X93717905Y-61491810D01*
X93717905Y-61729905D01*
X93670286Y-61825143D01*
X93622667Y-61872762D01*
X93527429Y-61920381D01*
X93289333Y-61920381D01*
X93194095Y-61872762D01*
X93146476Y-61825143D01*
X97353381Y-66301857D02*
X96877190Y-66635191D01*
X97353381Y-66873286D02*
X96353381Y-66873286D01*
X96353381Y-66492333D01*
X96401000Y-66397095D01*
X96448619Y-66349476D01*
X96543857Y-66301857D01*
X96686714Y-66301857D01*
X96781952Y-66349476D01*
X96829571Y-66397095D01*
X96877190Y-66492333D01*
X96877190Y-66873286D01*
X96353381Y-65968524D02*
X96353381Y-65349476D01*
X96734333Y-65682810D01*
X96734333Y-65539952D01*
X96781952Y-65444714D01*
X96829571Y-65397095D01*
X96924810Y-65349476D01*
X97162905Y-65349476D01*
X97258143Y-65397095D01*
X97305762Y-65444714D01*
X97353381Y-65539952D01*
X97353381Y-65825667D01*
X97305762Y-65920905D01*
X97258143Y-65968524D01*
X96353381Y-64492333D02*
X96353381Y-64682810D01*
X96401000Y-64778048D01*
X96448619Y-64825667D01*
X96591476Y-64920905D01*
X96781952Y-64968524D01*
X97162905Y-64968524D01*
X97258143Y-64920905D01*
X97305762Y-64873286D01*
X97353381Y-64778048D01*
X97353381Y-64587571D01*
X97305762Y-64492333D01*
X97258143Y-64444714D01*
X97162905Y-64397095D01*
X96924810Y-64397095D01*
X96829571Y-64444714D01*
X96781952Y-64492333D01*
X96734333Y-64587571D01*
X96734333Y-64778048D01*
X96781952Y-64873286D01*
X96829571Y-64920905D01*
X96924810Y-64968524D01*
X97352381Y-63126857D02*
X96876190Y-63460191D01*
X97352381Y-63698286D02*
X96352381Y-63698286D01*
X96352381Y-63317333D01*
X96400000Y-63222095D01*
X96447619Y-63174476D01*
X96542857Y-63126857D01*
X96685714Y-63126857D01*
X96780952Y-63174476D01*
X96828571Y-63222095D01*
X96876190Y-63317333D01*
X96876190Y-63698286D01*
X96352381Y-62793524D02*
X96352381Y-62174476D01*
X96733333Y-62507810D01*
X96733333Y-62364952D01*
X96780952Y-62269714D01*
X96828571Y-62222095D01*
X96923810Y-62174476D01*
X97161905Y-62174476D01*
X97257143Y-62222095D01*
X97304762Y-62269714D01*
X97352381Y-62364952D01*
X97352381Y-62650667D01*
X97304762Y-62745905D01*
X97257143Y-62793524D01*
X96352381Y-61841143D02*
X96352381Y-61174476D01*
X97352381Y-61603048D01*
X84447143Y-67126381D02*
X84113809Y-66650190D01*
X83875714Y-67126381D02*
X83875714Y-66126381D01*
X84256667Y-66126381D01*
X84351905Y-66174000D01*
X84399524Y-66221619D01*
X84447143Y-66316857D01*
X84447143Y-66459714D01*
X84399524Y-66554952D01*
X84351905Y-66602571D01*
X84256667Y-66650190D01*
X83875714Y-66650190D01*
X85304286Y-66459714D02*
X85304286Y-67126381D01*
X85066190Y-66078762D02*
X84828095Y-66793048D01*
X85447143Y-66793048D01*
X86018571Y-66126381D02*
X86113810Y-66126381D01*
X86209048Y-66174000D01*
X86256667Y-66221619D01*
X86304286Y-66316857D01*
X86351905Y-66507333D01*
X86351905Y-66745429D01*
X86304286Y-66935905D01*
X86256667Y-67031143D01*
X86209048Y-67078762D01*
X86113810Y-67126381D01*
X86018571Y-67126381D01*
X85923333Y-67078762D01*
X85875714Y-67031143D01*
X85828095Y-66935905D01*
X85780476Y-66745429D01*
X85780476Y-66507333D01*
X85828095Y-66316857D01*
X85875714Y-66221619D01*
X85923333Y-66174000D01*
X86018571Y-66126381D01*
X84288381Y-39877905D02*
X85097905Y-39877905D01*
X85193143Y-39830286D01*
X85240762Y-39782667D01*
X85288381Y-39687429D01*
X85288381Y-39496952D01*
X85240762Y-39401714D01*
X85193143Y-39354095D01*
X85097905Y-39306476D01*
X84288381Y-39306476D01*
X85288381Y-38306476D02*
X85288381Y-38877905D01*
X85288381Y-38592191D02*
X84288381Y-38592191D01*
X84431238Y-38687429D01*
X84526476Y-38782667D01*
X84574095Y-38877905D01*
X84542381Y-58927905D02*
X85351905Y-58927905D01*
X85447143Y-58880286D01*
X85494762Y-58832667D01*
X85542381Y-58737429D01*
X85542381Y-58546952D01*
X85494762Y-58451714D01*
X85447143Y-58404095D01*
X85351905Y-58356476D01*
X84542381Y-58356476D01*
X84875714Y-57451714D02*
X85542381Y-57451714D01*
X84494762Y-57689810D02*
X85209048Y-57927905D01*
X85209048Y-57308857D01*
X63444381Y-50268095D02*
X62444381Y-50268095D01*
X62444381Y-49887142D01*
X62492000Y-49791904D01*
X62539619Y-49744285D01*
X62634857Y-49696666D01*
X62777714Y-49696666D01*
X62872952Y-49744285D01*
X62920571Y-49791904D01*
X62968190Y-49887142D01*
X62968190Y-50268095D01*
X63444381Y-48744285D02*
X63444381Y-49315714D01*
X63444381Y-49030000D02*
X62444381Y-49030000D01*
X62587238Y-49125238D01*
X62682476Y-49220476D01*
X62730095Y-49315714D01*
X100020381Y-50014095D02*
X99020381Y-50014095D01*
X99020381Y-49633142D01*
X99068000Y-49537904D01*
X99115619Y-49490285D01*
X99210857Y-49442666D01*
X99353714Y-49442666D01*
X99448952Y-49490285D01*
X99496571Y-49537904D01*
X99544190Y-49633142D01*
X99544190Y-50014095D01*
X99115619Y-49061714D02*
X99068000Y-49014095D01*
X99020381Y-48918857D01*
X99020381Y-48680761D01*
X99068000Y-48585523D01*
X99115619Y-48537904D01*
X99210857Y-48490285D01*
X99306095Y-48490285D01*
X99448952Y-48537904D01*
X100020381Y-49109333D01*
X100020381Y-48490285D01*
X68016381Y-76938095D02*
X67016381Y-76938095D01*
X67016381Y-76557142D01*
X67064000Y-76461904D01*
X67111619Y-76414285D01*
X67206857Y-76366666D01*
X67349714Y-76366666D01*
X67444952Y-76414285D01*
X67492571Y-76461904D01*
X67540190Y-76557142D01*
X67540190Y-76938095D01*
X67016381Y-76033333D02*
X67016381Y-75414285D01*
X67397333Y-75747619D01*
X67397333Y-75604761D01*
X67444952Y-75509523D01*
X67492571Y-75461904D01*
X67587810Y-75414285D01*
X67825905Y-75414285D01*
X67921143Y-75461904D01*
X67968762Y-75509523D01*
X68016381Y-75604761D01*
X68016381Y-75890476D01*
X67968762Y-75985714D01*
X67921143Y-76033333D01*
X103322381Y-76684095D02*
X102322381Y-76684095D01*
X102322381Y-76303142D01*
X102370000Y-76207904D01*
X102417619Y-76160285D01*
X102512857Y-76112666D01*
X102655714Y-76112666D01*
X102750952Y-76160285D01*
X102798571Y-76207904D01*
X102846190Y-76303142D01*
X102846190Y-76684095D01*
X102655714Y-75255523D02*
X103322381Y-75255523D01*
X102274762Y-75493619D02*
X102989048Y-75731714D01*
X102989048Y-75112666D01*
X91781334Y-39473143D02*
X91733715Y-39520762D01*
X91590858Y-39568381D01*
X91495620Y-39568381D01*
X91352762Y-39520762D01*
X91257524Y-39425524D01*
X91209905Y-39330286D01*
X91162286Y-39139810D01*
X91162286Y-38996952D01*
X91209905Y-38806476D01*
X91257524Y-38711238D01*
X91352762Y-38616000D01*
X91495620Y-38568381D01*
X91590858Y-38568381D01*
X91733715Y-38616000D01*
X91781334Y-38663619D01*
X92114667Y-38568381D02*
X92781334Y-38568381D01*
X92352762Y-39568381D01*
X77589143Y-40997143D02*
X77541524Y-41044762D01*
X77398667Y-41092381D01*
X77303429Y-41092381D01*
X77160571Y-41044762D01*
X77065333Y-40949524D01*
X77017714Y-40854286D01*
X76970095Y-40663810D01*
X76970095Y-40520952D01*
X77017714Y-40330476D01*
X77065333Y-40235238D01*
X77160571Y-40140000D01*
X77303429Y-40092381D01*
X77398667Y-40092381D01*
X77541524Y-40140000D01*
X77589143Y-40187619D01*
X78541524Y-41092381D02*
X77970095Y-41092381D01*
X78255809Y-41092381D02*
X78255809Y-40092381D01*
X78160571Y-40235238D01*
X78065333Y-40330476D01*
X77970095Y-40378095D01*
X78874857Y-40092381D02*
X79493905Y-40092381D01*
X79160571Y-40473333D01*
X79303429Y-40473333D01*
X79398667Y-40520952D01*
X79446286Y-40568571D01*
X79493905Y-40663810D01*
X79493905Y-40901905D01*
X79446286Y-40997143D01*
X79398667Y-41044762D01*
X79303429Y-41092381D01*
X79017714Y-41092381D01*
X78922476Y-41044762D01*
X78874857Y-40997143D01*
X91908334Y-58650143D02*
X91860715Y-58697762D01*
X91717858Y-58745381D01*
X91622620Y-58745381D01*
X91479762Y-58697762D01*
X91384524Y-58602524D01*
X91336905Y-58507286D01*
X91289286Y-58316810D01*
X91289286Y-58173952D01*
X91336905Y-57983476D01*
X91384524Y-57888238D01*
X91479762Y-57793000D01*
X91622620Y-57745381D01*
X91717858Y-57745381D01*
X91860715Y-57793000D01*
X91908334Y-57840619D01*
X92384524Y-58745381D02*
X92575000Y-58745381D01*
X92670239Y-58697762D01*
X92717858Y-58650143D01*
X92813096Y-58507286D01*
X92860715Y-58316810D01*
X92860715Y-57935857D01*
X92813096Y-57840619D01*
X92765477Y-57793000D01*
X92670239Y-57745381D01*
X92479762Y-57745381D01*
X92384524Y-57793000D01*
X92336905Y-57840619D01*
X92289286Y-57935857D01*
X92289286Y-58173952D01*
X92336905Y-58269190D01*
X92384524Y-58316810D01*
X92479762Y-58364429D01*
X92670239Y-58364429D01*
X92765477Y-58316810D01*
X92813096Y-58269190D01*
X92860715Y-58173952D01*
X77589143Y-60301143D02*
X77541524Y-60348762D01*
X77398667Y-60396381D01*
X77303429Y-60396381D01*
X77160571Y-60348762D01*
X77065333Y-60253524D01*
X77017714Y-60158286D01*
X76970095Y-59967810D01*
X76970095Y-59824952D01*
X77017714Y-59634476D01*
X77065333Y-59539238D01*
X77160571Y-59444000D01*
X77303429Y-59396381D01*
X77398667Y-59396381D01*
X77541524Y-59444000D01*
X77589143Y-59491619D01*
X78541524Y-60396381D02*
X77970095Y-60396381D01*
X78255809Y-60396381D02*
X78255809Y-59396381D01*
X78160571Y-59539238D01*
X78065333Y-59634476D01*
X77970095Y-59682095D01*
X79446286Y-59396381D02*
X78970095Y-59396381D01*
X78922476Y-59872571D01*
X78970095Y-59824952D01*
X79065333Y-59777333D01*
X79303429Y-59777333D01*
X79398667Y-59824952D01*
X79446286Y-59872571D01*
X79493905Y-59967810D01*
X79493905Y-60205905D01*
X79446286Y-60301143D01*
X79398667Y-60348762D01*
X79303429Y-60396381D01*
X79065333Y-60396381D01*
X78970095Y-60348762D01*
X78922476Y-60301143D01*
X79621143Y-69540381D02*
X79287809Y-69064190D01*
X79049714Y-69540381D02*
X79049714Y-68540381D01*
X79430667Y-68540381D01*
X79525905Y-68588000D01*
X79573524Y-68635619D01*
X79621143Y-68730857D01*
X79621143Y-68873714D01*
X79573524Y-68968952D01*
X79525905Y-69016571D01*
X79430667Y-69064190D01*
X79049714Y-69064190D01*
X80478286Y-68873714D02*
X80478286Y-69540381D01*
X80240190Y-68492762D02*
X80002095Y-69207048D01*
X80621143Y-69207048D01*
X81525905Y-69540381D02*
X80954476Y-69540381D01*
X81240190Y-69540381D02*
X81240190Y-68540381D01*
X81144952Y-68683238D01*
X81049714Y-68778476D01*
X80954476Y-68826095D01*
X89019143Y-69286381D02*
X88685809Y-68810190D01*
X88447714Y-69286381D02*
X88447714Y-68286381D01*
X88828667Y-68286381D01*
X88923905Y-68334000D01*
X88971524Y-68381619D01*
X89019143Y-68476857D01*
X89019143Y-68619714D01*
X88971524Y-68714952D01*
X88923905Y-68762571D01*
X88828667Y-68810190D01*
X88447714Y-68810190D01*
X89876286Y-68619714D02*
X89876286Y-69286381D01*
X89638190Y-68238762D02*
X89400095Y-68953048D01*
X90019143Y-68953048D01*
X90352476Y-68381619D02*
X90400095Y-68334000D01*
X90495333Y-68286381D01*
X90733429Y-68286381D01*
X90828667Y-68334000D01*
X90876286Y-68381619D01*
X90923905Y-68476857D01*
X90923905Y-68572095D01*
X90876286Y-68714952D01*
X90304857Y-69286381D01*
X90923905Y-69286381D01*
X83685143Y-83256381D02*
X83351809Y-82780190D01*
X83113714Y-83256381D02*
X83113714Y-82256381D01*
X83494667Y-82256381D01*
X83589905Y-82304000D01*
X83637524Y-82351619D01*
X83685143Y-82446857D01*
X83685143Y-82589714D01*
X83637524Y-82684952D01*
X83589905Y-82732571D01*
X83494667Y-82780190D01*
X83113714Y-82780190D01*
X84542286Y-82589714D02*
X84542286Y-83256381D01*
X84304190Y-82208762D02*
X84066095Y-82923048D01*
X84685143Y-82923048D01*
X84970857Y-82256381D02*
X85589905Y-82256381D01*
X85256571Y-82637333D01*
X85399429Y-82637333D01*
X85494667Y-82684952D01*
X85542286Y-82732571D01*
X85589905Y-82827810D01*
X85589905Y-83065905D01*
X85542286Y-83161143D01*
X85494667Y-83208762D01*
X85399429Y-83256381D01*
X85113714Y-83256381D01*
X85018476Y-83208762D01*
X84970857Y-83161143D01*
X77335143Y-83256381D02*
X77001809Y-82780190D01*
X76763714Y-83256381D02*
X76763714Y-82256381D01*
X77144667Y-82256381D01*
X77239905Y-82304000D01*
X77287524Y-82351619D01*
X77335143Y-82446857D01*
X77335143Y-82589714D01*
X77287524Y-82684952D01*
X77239905Y-82732571D01*
X77144667Y-82780190D01*
X76763714Y-82780190D01*
X78192286Y-82589714D02*
X78192286Y-83256381D01*
X77954190Y-82208762D02*
X77716095Y-82923048D01*
X78335143Y-82923048D01*
X79144667Y-82589714D02*
X79144667Y-83256381D01*
X78906571Y-82208762D02*
X78668476Y-82923048D01*
X79287524Y-82923048D01*
X75184095Y-74636381D02*
X75184095Y-75445905D01*
X75231714Y-75541143D01*
X75279333Y-75588762D01*
X75374571Y-75636381D01*
X75565048Y-75636381D01*
X75660286Y-75588762D01*
X75707905Y-75541143D01*
X75755524Y-75445905D01*
X75755524Y-74636381D01*
X76184095Y-74731619D02*
X76231714Y-74684000D01*
X76326952Y-74636381D01*
X76565048Y-74636381D01*
X76660286Y-74684000D01*
X76707905Y-74731619D01*
X76755524Y-74826857D01*
X76755524Y-74922095D01*
X76707905Y-75064952D01*
X76136476Y-75636381D01*
X76755524Y-75636381D01*
X75184095Y-76668381D02*
X75184095Y-77477905D01*
X75231714Y-77573143D01*
X75279333Y-77620762D01*
X75374571Y-77668381D01*
X75565048Y-77668381D01*
X75660286Y-77620762D01*
X75707905Y-77573143D01*
X75755524Y-77477905D01*
X75755524Y-76668381D01*
X76136476Y-76668381D02*
X76755524Y-76668381D01*
X76422190Y-77049333D01*
X76565048Y-77049333D01*
X76660286Y-77096952D01*
X76707905Y-77144571D01*
X76755524Y-77239810D01*
X76755524Y-77477905D01*
X76707905Y-77573143D01*
X76660286Y-77620762D01*
X76565048Y-77668381D01*
X76279333Y-77668381D01*
X76184095Y-77620762D01*
X76136476Y-77573143D01*
M02*
